<svg width="74" height="80" viewBox="0 0 74 80" fill="none" xmlns="http://www.w3.org/2000/svg">
<g filter="url(#filter0_d_49_177)">
<path d="M49.6603 62.9998H12.3398C8.38388 62.9998 5.177 59.7928 5.177 55.837V12.1628C5.177 8.20699 8.38377 5 12.3398 5H49.6604C53.6163 5 56.8232 8.20699 56.8232 12.1628V55.8369C56.823 59.7928 53.6163 62.9998 49.6603 62.9998Z" fill="url(#paint0_linear_49_177)"/>
<path d="M5.177 52.6965V55.8368C5.177 59.7927 8.38399 62.9996 12.3398 62.9996H49.6604C53.6163 62.9996 56.8232 59.7926 56.8232 55.8368V52.6965H5.177Z" fill="url(#paint1_linear_49_177)"/>
<path d="M49.6603 5H12.3398C8.38388 5 5.177 8.20699 5.177 12.1628V26.4862H56.8232V12.1628C56.823 8.20699 53.6163 5 49.6603 5Z" fill="url(#paint2_linear_49_177)"/>
<path d="M48.6233 21.3979H13.3769C11.7719 21.3979 10.4707 20.0967 10.4707 18.4916V11.7036C10.4707 10.0985 11.7719 8.79736 13.3769 8.79736H48.623C50.2281 8.79736 51.5293 10.0985 51.5293 11.7036V18.4915C51.5295 20.0967 50.2282 21.3979 48.6233 21.3979Z" fill="url(#paint3_linear_49_177)"/>
<path d="M29.7634 12.3573L29.3426 12.8861C29.2585 12.9702 29.1503 13.0063 29.0782 13.0063C28.8259 13.0063 28.6455 12.7419 28.6455 12.4894C28.6455 12.3091 28.7416 12.1048 28.8979 11.9966L30.1478 10.7947C30.232 10.7105 30.3281 10.6625 30.4723 10.6625C30.7367 10.6625 31.0371 10.8186 31.0371 11.0832V19.0396C31.0371 19.3161 30.7127 19.4604 30.4001 19.4604C30.0757 19.4604 29.7631 19.3161 29.7631 19.0396V12.3573H29.7634Z" fill="url(#paint4_linear_49_177)"/>
<path d="M34.7634 10.6746C36.1576 10.6746 37.3356 11.6241 37.3356 13.0663C37.3356 15.6503 33.4414 16.4917 33.4414 17.8739V18.3307H36.975C37.1913 18.3307 37.3958 18.5831 37.3958 18.8836C37.3958 19.184 37.1914 19.4604 36.975 19.4604H32.6962C32.4558 19.4604 32.1313 19.2922 32.1313 19.0397V17.8739C32.1313 15.9268 36.0616 14.9532 36.0616 13.1023C36.0616 12.5133 35.6771 11.8402 34.7636 11.8402C34.0905 11.8402 33.5496 12.2129 33.5496 13.0301C33.5496 13.2705 33.2972 13.511 32.8765 13.511C32.54 13.511 32.2996 13.3427 32.2996 12.802C32.2995 11.5159 33.4533 10.6746 34.7634 10.6746Z" fill="url(#paint5_linear_49_177)"/>
<path d="M42.1312 16.9124V16.6841C42.1312 15.7226 41.5422 15.374 40.6647 15.374C40.3643 15.374 40.2561 15.1217 40.2561 14.8694C40.2561 14.605 40.3643 14.3525 40.6647 14.3525C41.3979 14.3525 41.9147 14.1242 41.9147 13.0304C41.9147 12.153 41.494 11.7924 40.7128 11.7924C39.7392 11.7924 39.4628 12.2852 39.4628 12.778C39.4628 13.0905 39.3186 13.2949 38.8619 13.2949C38.2971 13.2949 38.2008 13.1626 38.2008 12.7059C38.2008 11.9247 38.7417 10.6747 40.7248 10.6747C42.1309 10.6747 43.1405 11.2276 43.1405 12.8141C43.1405 13.8117 42.7559 14.5449 42.179 14.8212C42.888 15.0978 43.4049 15.6626 43.4049 16.6841V16.9124C43.4049 18.8235 42.179 19.5325 40.6645 19.5325C38.7895 19.5325 38.0083 18.3667 38.0083 17.4172C38.0083 16.9965 38.1645 16.8763 38.5971 16.8763C39.1259 16.8763 39.2582 17.0325 39.2582 17.3571C39.2582 17.8859 39.7029 18.4029 40.6765 18.4029C41.6624 18.4027 42.1312 17.9581 42.1312 16.9124Z" fill="url(#paint6_linear_49_177)"/>
<path d="M47.2753 17.4893H44.3187C44.0663 17.4893 43.874 17.3091 43.874 17.0206C43.874 16.9364 43.898 16.8402 43.9461 16.7562L46.8548 11.0231C46.9871 10.7707 47.2034 10.6746 47.4076 10.6746C47.648 10.6746 48.0446 10.8669 48.0446 11.1673C48.0446 11.2275 48.0206 11.2875 47.9845 11.3597L45.5087 16.2994H47.2755V14.6408C47.2755 14.3403 47.5881 14.22 47.9125 14.22C48.225 14.22 48.5495 14.3402 48.5495 14.6408V16.2993H49.1383C49.4267 16.2993 49.571 16.5997 49.571 16.9003C49.571 17.1887 49.3667 17.4892 49.1383 17.4892H48.5495V19.0396C48.5495 19.3161 48.225 19.4603 47.9125 19.4603C47.5881 19.4603 47.2755 19.3161 47.2755 19.0396V17.4892H47.2753V17.4893Z" fill="url(#paint7_linear_49_177)"/>
<path d="M48.6233 8.79736H13.3769C11.7719 8.79736 10.4707 10.0985 10.4707 11.7036V14.1713H51.5295V11.7036C51.5295 10.0986 50.2282 8.79736 48.6233 8.79736Z" fill="url(#paint8_linear_49_177)"/>
<path d="M19.3645 30.2413C18.9143 29.7588 18.275 29.4554 17.5632 29.4554H12.9364C11.5746 29.4554 10.4707 30.5594 10.4707 31.9211C10.4707 32.633 10.7741 33.2725 11.2565 33.7224L17.3312 39.7972C17.7814 40.2797 18.4208 40.5831 19.1325 40.5831H23.7594C25.1211 40.5831 26.2251 39.4791 26.2251 38.1174C26.2251 37.4055 25.9217 36.7661 25.4392 36.3161L19.3645 30.2413Z" fill="url(#paint9_linear_49_177)"/>
<path d="M35.1148 30.2413C34.6646 29.7588 34.0252 29.4554 33.3135 29.4554H28.6866C27.3249 29.4554 26.2209 30.5594 26.2209 31.9211C26.2209 32.633 26.5243 33.2725 27.0068 33.7224L33.0816 39.7972C33.5318 40.2797 34.1711 40.5831 34.8829 40.5831H39.5097C40.8715 40.5831 41.9754 39.4791 41.9754 38.1174C41.9754 37.4055 41.672 36.7661 41.1896 36.3161L35.1148 30.2413Z" fill="url(#paint10_linear_49_177)"/>
<path d="M17.5632 34.3868H12.9364C11.5746 34.3868 10.4707 33.2829 10.4707 31.9211C10.4707 30.5594 11.5746 29.4554 12.9364 29.4554H17.5632C18.925 29.4554 20.0289 30.5594 20.0289 31.9211C20.0289 33.2829 18.925 34.3868 17.5632 34.3868Z" fill="url(#paint11_linear_49_177)"/>
<path d="M33.3135 34.3868H28.6866C27.3249 34.3868 26.2209 33.2829 26.2209 31.9211C26.2209 30.5594 27.3249 29.4554 28.6866 29.4554H33.3135C34.6752 29.4554 35.7791 30.5594 35.7791 31.9211C35.7791 33.2829 34.6752 34.3868 33.3135 34.3868Z" fill="url(#paint12_linear_49_177)"/>
<path d="M56.823 36.1995V40.0238C56.3968 40.3724 55.8521 40.5829 55.2594 40.5829H50.6331C49.9216 40.5829 49.2812 40.2795 48.8319 39.7978L42.7571 33.723C42.5763 33.5539 42.4201 33.3588 42.2962 33.1432C42.2754 33.1071 42.2562 33.0696 42.2368 33.0335C42.2174 32.9961 42.1994 32.9585 42.1825 32.9198C42.1657 32.8825 42.149 32.8436 42.1347 32.8036C42.1206 32.7662 42.1063 32.7287 42.0935 32.69C42.0923 32.6874 42.0923 32.6849 42.0909 32.6823C42.0793 32.6435 42.0663 32.6034 42.056 32.5636C42.0444 32.5223 42.0353 32.4809 42.0263 32.4396C42.0199 32.41 42.0134 32.379 42.0082 32.348C41.9979 32.2899 41.9901 32.2318 41.9836 32.1724C41.9747 32.0897 41.9707 32.0058 41.9707 31.9206C41.9707 31.2402 42.2471 30.6243 42.6925 30.1775C43.1392 29.7321 43.7565 29.4558 44.4368 29.4558H49.0631C49.1483 29.4558 49.2323 29.4597 49.315 29.4687C49.3743 29.4752 49.4324 29.4829 49.4905 29.4933C49.5215 29.4984 49.5525 29.5049 49.5822 29.5114C49.6234 29.5205 49.6649 29.5296 49.7061 29.5411C49.7461 29.5514 49.7862 29.5643 49.8248 29.576C49.8274 29.5772 49.8299 29.5772 49.8325 29.5786C49.8713 29.5915 49.9088 29.6057 49.9462 29.6198C49.9861 29.634 50.0236 29.6508 50.0624 29.6676C50.367 29.8045 50.6395 30.0007 50.8642 30.241L50.9042 30.281L56.823 36.1995Z" fill="url(#paint13_linear_49_177)"/>
<path d="M49.0637 34.3868H44.4369C43.0751 34.3868 41.9712 33.2829 41.9712 31.9211C41.9712 30.5594 43.0751 29.4554 44.4369 29.4554H49.0637C50.4255 29.4554 51.5294 30.5594 51.5294 31.9211C51.5294 33.2829 50.4255 34.3868 49.0637 34.3868Z" fill="url(#paint14_linear_49_177)"/>
<path d="M19.3645 38.816C18.9143 38.3335 18.275 38.0302 17.5632 38.0302H12.9364C11.5746 38.0302 10.4707 39.1341 10.4707 40.4958C10.4707 41.2077 10.7741 41.8472 11.2565 42.2971L17.3312 48.3719C17.7814 48.8544 18.4208 49.1578 19.1325 49.1578H23.7594C25.1211 49.1578 26.2251 48.0538 26.2251 46.6921C26.2251 45.9802 25.9217 45.3408 25.4392 44.8908L19.3645 38.816Z" fill="url(#paint15_linear_49_177)"/>
<path d="M35.1148 38.816C34.6646 38.3335 34.0252 38.0302 33.3135 38.0302H28.6866C27.3249 38.0302 26.2209 39.1341 26.2209 40.4958C26.2209 41.2077 26.5243 41.8472 27.0068 42.2971L33.0816 48.3719C33.5318 48.8544 34.1711 49.1578 34.8829 49.1578H39.5097C40.8715 49.1578 41.9754 48.0538 41.9754 46.6921C41.9754 45.9802 41.672 45.3408 41.1896 44.8908L35.1148 38.816Z" fill="url(#paint16_linear_49_177)"/>
<path d="M17.5632 42.9615H12.9364C11.5746 42.9615 10.4707 41.8576 10.4707 40.4958C10.4707 39.1341 11.5746 38.0302 12.9364 38.0302H17.5632C18.925 38.0302 20.0289 39.1341 20.0289 40.4958C20.0289 41.8576 18.925 42.9615 17.5632 42.9615Z" fill="url(#paint17_linear_49_177)"/>
<path d="M33.3135 42.9615H28.6866C27.3249 42.9615 26.2209 41.8576 26.2209 40.4958C26.2209 39.1341 27.3249 38.0302 28.6866 38.0302H33.3135C34.6752 38.0302 35.7791 39.1341 35.7791 40.4958C35.7791 41.8576 34.6752 42.9615 33.3135 42.9615Z" fill="url(#paint18_linear_49_177)"/>
<path d="M56.823 44.774V48.5984C56.3968 48.947 55.8521 49.1574 55.2594 49.1574H50.6331C49.9216 49.1574 49.2812 48.8541 48.8319 48.3724L42.7958 42.3363L42.7571 42.2976C42.5157 42.0729 42.3194 41.7993 42.1825 41.4944C42.1657 41.4557 42.149 41.4182 42.1347 41.3782C42.1192 41.3396 42.1051 41.2995 42.0921 41.2595C42.0792 41.2195 42.0676 41.1794 42.056 41.1381C42.0444 41.0982 42.0353 41.0554 42.0263 41.0142C42.0186 40.9781 42.0108 40.9419 42.0056 40.9044C41.9953 40.8528 41.9887 40.8011 41.9836 40.7482C41.9747 40.6656 41.9707 40.5816 41.9707 40.4964C41.9707 39.816 42.2471 39.1988 42.6925 38.7521C43.1392 38.3067 43.7565 38.0303 44.4368 38.0303H49.0631C49.1483 38.0303 49.2323 38.0341 49.315 38.0432C49.3743 38.0496 49.4324 38.0573 49.4905 38.0678C49.5215 38.0729 49.5525 38.0793 49.5822 38.0859C49.6234 38.095 49.6649 38.104 49.7061 38.1156C49.7461 38.1259 49.7862 38.1388 49.8248 38.1504C49.8274 38.1517 49.8299 38.1517 49.8325 38.153C49.8713 38.1659 49.9088 38.1801 49.9462 38.1942C49.9861 38.2084 50.0236 38.2251 50.0624 38.242C50.367 38.3788 50.6395 38.575 50.8642 38.8166L50.912 38.8644L52.6305 40.5828L56.823 44.774Z" fill="url(#paint19_linear_49_177)"/>
<path d="M49.0637 42.9615H44.4369C43.0751 42.9615 41.9712 41.8576 41.9712 40.4958C41.9712 39.1341 43.0751 38.0302 44.4369 38.0302H49.0637C50.4255 38.0302 51.5294 39.1341 51.5294 40.4958C51.5294 41.8576 50.4255 42.9615 49.0637 42.9615Z" fill="url(#paint20_linear_49_177)"/>
<path d="M19.3645 47.3908C18.9143 46.9083 18.275 46.605 17.5632 46.605H12.9364C11.5746 46.605 10.4707 47.7089 10.4707 49.0707C10.4707 49.7825 10.7741 50.422 11.2565 50.8719L17.3312 56.9468C17.7814 57.4292 18.4208 57.7326 19.1325 57.7326H23.7594C25.1211 57.7326 26.2251 56.6287 26.2251 55.2669C26.2251 54.5551 25.9217 53.9156 25.4392 53.4656L19.3645 47.3908Z" fill="url(#paint21_linear_49_177)"/>
<path d="M35.1148 47.3908C34.6646 46.9083 34.0252 46.605 33.3135 46.605H28.6866C27.3249 46.605 26.2209 47.7089 26.2209 49.0707C26.2209 49.7825 26.5243 50.422 27.0068 50.8719L33.0816 56.9468C33.5318 57.4292 34.1711 57.7326 34.8829 57.7326H39.5097C40.8715 57.7326 41.9754 56.6287 41.9754 55.2669C41.9754 54.5551 41.672 53.9156 41.1896 53.4656L35.1148 47.3908Z" fill="url(#paint22_linear_49_177)"/>
<path d="M17.5632 51.5363H12.9364C11.5746 51.5363 10.4707 50.4324 10.4707 49.0707C10.4707 47.7089 11.5746 46.605 12.9364 46.605H17.5632C18.925 46.605 20.0289 47.7089 20.0289 49.0707C20.0289 50.4324 18.925 51.5363 17.5632 51.5363Z" fill="url(#paint23_linear_49_177)"/>
<path d="M33.3135 51.5363H28.6866C27.3249 51.5363 26.2209 50.4324 26.2209 49.0707C26.2209 47.7089 27.3249 46.605 28.6866 46.605H33.3135C34.6752 46.605 35.7791 47.7089 35.7791 49.0707C35.7791 50.4324 34.6752 51.5363 33.3135 51.5363Z" fill="url(#paint24_linear_49_177)"/>
<path d="M56.8231 53.35V55.8367C56.8231 56.3324 56.7727 56.8167 56.676 57.2841V57.2854C56.2758 57.5669 55.7864 57.732 55.2596 57.732H50.6333C49.9218 57.732 49.2814 57.4287 48.8322 56.947L42.7573 50.8722C42.5765 50.703 42.4203 50.508 42.2964 50.2924C42.2757 50.2563 42.2564 50.2188 42.237 50.1826C42.2177 50.1452 42.1997 50.1076 42.1828 50.069C42.1659 50.0316 42.1493 49.9928 42.135 49.9528C42.1195 49.914 42.1053 49.8741 42.0924 49.8341C42.0795 49.7941 42.0678 49.754 42.0562 49.7127C42.0447 49.6728 42.0355 49.6314 42.0266 49.5901C42.0201 49.5591 42.0137 49.5293 42.0084 49.4984C41.9981 49.4403 41.9903 49.3822 41.9839 49.3228C41.9749 49.2401 41.9709 49.1562 41.9709 49.071C41.9709 48.3894 42.2474 47.7734 42.6928 47.3267C43.1394 46.8813 43.7567 46.605 44.4371 46.605H49.0634C49.1486 46.605 49.2325 46.6088 49.3152 46.6178C49.3746 46.6242 49.4327 46.6319 49.4908 46.6424C49.5217 46.6475 49.5527 46.6539 49.5824 46.6605C49.6237 46.6695 49.6651 46.6786 49.7064 46.6902C49.7463 46.7005 49.7864 46.7134 49.8251 46.7251C49.8277 46.7263 49.8302 46.7263 49.8328 46.7277C49.8715 46.7406 49.909 46.7547 49.9464 46.7689C49.9864 46.7831 50.0239 46.7999 50.0626 46.8167C50.3672 46.9537 50.6398 47.1498 50.8644 47.3913L50.9122 47.4391L52.6307 49.1575L56.8231 53.35Z" fill="url(#paint25_linear_49_177)"/>
<path d="M49.0637 51.5363H44.4369C43.0751 51.5363 41.9712 50.4324 41.9712 49.0707C41.9712 47.7089 43.0751 46.605 44.4369 46.605H49.0637C50.4255 46.605 51.5294 47.7089 51.5294 49.0707C51.5294 50.4324 50.4255 51.5363 49.0637 51.5363Z" fill="url(#paint26_linear_49_177)"/>
<path d="M26.0757 63H14.8104L11.2958 59.4855L11.2571 59.4467C11.0157 59.2221 10.8194 58.9484 10.6825 58.6436C10.6657 58.6048 10.649 58.5673 10.6347 58.5274C10.6192 58.4886 10.6051 58.4486 10.5921 58.4086C10.5792 58.3686 10.5676 58.3285 10.556 58.2873C10.5444 58.2473 10.5353 58.2046 10.5263 58.1634C10.5186 58.1272 10.5108 58.0911 10.5056 58.0536C10.4953 58.002 10.4887 57.9503 10.4836 57.8974C10.4747 57.8148 10.4707 57.7308 10.4707 57.6456C10.4707 56.9652 10.7471 56.3479 11.1925 55.9013C11.6392 55.4558 12.2552 55.1794 12.9368 55.1794H17.5631C17.6483 55.1794 17.7323 55.1833 17.815 55.1924C17.8679 55.1975 17.9196 55.2039 17.9712 55.2143C18.0086 55.2194 18.0448 55.2272 18.0809 55.2351C18.1235 55.2441 18.1649 55.2532 18.2049 55.2647C18.2461 55.2751 18.285 55.288 18.3249 55.2995C18.3276 55.3008 18.33 55.3008 18.3327 55.3021C18.3714 55.315 18.4089 55.3293 18.4463 55.3434C18.485 55.3575 18.5238 55.3743 18.5625 55.3912C18.5999 55.4079 18.6387 55.4261 18.6749 55.4454C18.7123 55.4648 18.7485 55.4841 18.7846 55.5048C19.0002 55.6287 19.1965 55.785 19.3644 55.9657L25.4392 62.0405C25.6806 62.2652 25.877 62.5376 26.0138 62.8424C26.0369 62.8941 26.0576 62.9471 26.0757 63Z" fill="url(#paint27_linear_49_177)"/>
<path d="M41.8251 62.9999H30.5599L27.0376 59.4777C27.035 59.4751 27.0325 59.4726 27.0287 59.47L27.0067 59.4468C26.9163 59.3628 26.8324 59.2712 26.7549 59.1743C26.729 59.142 26.7045 59.1085 26.6799 59.075C26.6567 59.0414 26.6333 59.0079 26.6102 58.9729C26.5882 58.938 26.5663 58.902 26.5456 58.8657C26.5044 58.7935 26.4668 58.7198 26.4333 58.6436C26.4164 58.6048 26.3997 58.5674 26.3855 58.5274C26.3699 58.4886 26.3558 58.4486 26.3429 58.4086C26.3301 58.3687 26.3183 58.3286 26.3067 58.2873C26.2952 58.2473 26.286 58.2046 26.2771 58.1634C26.2694 58.1273 26.2615 58.0911 26.2563 58.0536C26.246 58.002 26.2394 57.9503 26.2343 57.8974C26.2254 57.8148 26.2214 57.7308 26.2214 57.6456C26.2214 56.9652 26.4978 56.3479 26.9432 55.9013C27.3898 55.4559 28.0058 55.1794 28.6862 55.1794H33.3138C33.3989 55.1794 33.4829 55.1833 33.5656 55.1924C33.6249 55.1988 33.683 55.2065 33.7412 55.2169C33.7721 55.222 33.8019 55.2285 33.8328 55.2351C33.874 55.2441 33.9155 55.2532 33.9555 55.2647C33.9967 55.2763 34.0368 55.288 34.0768 55.3009C34.1168 55.3138 34.1569 55.328 34.1955 55.3435C34.2355 55.3576 34.2744 55.3744 34.3118 55.3913C34.3505 55.408 34.388 55.4262 34.4254 55.4455C34.4615 55.4649 34.499 55.4842 34.5351 55.5049C34.7507 55.6288 34.9457 55.7852 35.1149 55.9658L41.1897 62.0407C41.4299 62.2653 41.6261 62.5377 41.7631 62.8425C41.7864 62.894 41.8071 62.947 41.8251 62.9999Z" fill="url(#paint28_linear_49_177)"/>
<path d="M17.5632 60.1108H12.9364C11.5746 60.1108 10.4707 59.0069 10.4707 57.6451C10.4707 56.2834 11.5746 55.1794 12.9364 55.1794H17.5632C18.925 55.1794 20.0289 56.2834 20.0289 57.6451C20.0289 59.0069 18.925 60.1108 17.5632 60.1108Z" fill="url(#paint29_linear_49_177)"/>
<path d="M33.3135 60.1108H28.6866C27.3249 60.1108 26.2209 59.0069 26.2209 57.6451C26.2209 56.2834 27.3249 55.1794 28.6866 55.1794H33.3135C34.6752 55.1794 35.7791 56.2834 35.7791 57.6451C35.7791 59.0069 34.6752 60.1108 33.3135 60.1108Z" fill="url(#paint30_linear_49_177)"/>
<path d="M55.2338 60.335C53.9206 61.9606 51.9116 62.9999 49.6598 62.9999H46.3106L42.7573 59.4468C42.5159 59.2221 42.3196 58.9484 42.1828 58.6436C42.1659 58.6048 42.1493 58.5674 42.135 58.5274C42.1195 58.4886 42.1053 58.4486 42.0924 58.4086C42.0795 58.3687 42.0678 58.3286 42.0562 58.2873C42.0447 58.2473 42.0355 58.2046 42.0266 58.1634C42.0189 58.1273 42.011 58.0911 42.0058 58.0536C41.9955 58.002 41.989 57.9503 41.9839 57.8974C41.9749 57.8148 41.9709 57.7308 41.9709 57.6456C41.9709 56.9652 42.2474 56.3479 42.6928 55.9013C43.1394 55.4559 43.7567 55.1794 44.4371 55.1794H49.0634C49.1486 55.1794 49.2325 55.1833 49.3152 55.1924C49.3746 55.1988 49.4327 55.2065 49.4908 55.2169C49.5217 55.222 49.5527 55.2285 49.5824 55.2351C49.6237 55.2441 49.6651 55.2532 49.7064 55.2647C49.7463 55.2751 49.7864 55.288 49.8251 55.2995C49.8277 55.3008 49.8302 55.3008 49.8328 55.3021C49.8715 55.315 49.909 55.3293 49.9464 55.3434C49.9864 55.3576 50.0239 55.3743 50.0626 55.3912C50.3672 55.528 50.6398 55.7242 50.8644 55.9657L50.9122 56.0135L52.6307 57.732L55.2338 60.335Z" fill="url(#paint31_linear_49_177)"/>
<path d="M49.0637 60.1108H44.4369C43.0751 60.1108 41.9712 59.0069 41.9712 57.6451C41.9712 56.2834 43.0751 55.1794 44.4369 55.1794H49.0637C50.4255 55.1794 51.5294 56.2834 51.5294 57.6451C51.5294 59.0069 50.4255 60.1108 49.0637 60.1108Z" fill="url(#paint32_linear_49_177)"/>
</g>
<defs>
<filter id="filter0_d_49_177" x="0.177002" y="0" width="73.6462" height="80" filterUnits="userSpaceOnUse" color-interpolation-filters="sRGB">
<feFlood flood-opacity="0" result="BackgroundImageFix"/>
<feColorMatrix in="SourceAlpha" type="matrix" values="0 0 0 0 0 0 0 0 0 0 0 0 0 0 0 0 0 0 127 0" result="hardAlpha"/>
<feOffset dx="6" dy="6"/>
<feGaussianBlur stdDeviation="5.5"/>
<feComposite in2="hardAlpha" operator="out"/>
<feColorMatrix type="matrix" values="0 0 0 0 0 0 0 0 0 0 0 0 0 0 0 0 0 0 0.1 0"/>
<feBlend mode="normal" in2="BackgroundImageFix" result="effect1_dropShadow_49_177"/>
<feBlend mode="normal" in="SourceGraphic" in2="effect1_dropShadow_49_177" result="shape"/>
</filter>
<linearGradient id="paint0_linear_49_177" x1="24.4695" y1="27.4706" x2="84.5357" y2="87.5368" gradientUnits="userSpaceOnUse">
<stop stop-color="#FCC344"/>
<stop offset="1" stop-color="#D48000"/>
</linearGradient>
<linearGradient id="paint1_linear_49_177" x1="30.9994" y1="57.3877" x2="30.9994" y2="64.6228" gradientUnits="userSpaceOnUse">
<stop stop-color="#D48000" stop-opacity="0"/>
<stop offset="1" stop-color="#D48000"/>
</linearGradient>
<linearGradient id="paint2_linear_49_177" x1="30.9994" y1="18.2477" x2="30.9994" y2="30.6435" gradientUnits="userSpaceOnUse">
<stop stop-color="#4D4D4D"/>
<stop offset="1" stop-color="#333333"/>
</linearGradient>
<linearGradient id="paint3_linear_49_177" x1="30.9994" y1="13.8456" x2="30.9994" y2="22.4214" gradientUnits="userSpaceOnUse">
<stop stop-color="#FFF2EB"/>
<stop offset="1" stop-color="#F1DACB"/>
</linearGradient>
<linearGradient id="paint4_linear_49_177" x1="29.8408" y1="13.296" x2="29.8408" y2="25.5692" gradientUnits="userSpaceOnUse">
<stop stop-color="#4D4D4D"/>
<stop offset="1" stop-color="#333333"/>
</linearGradient>
<linearGradient id="paint5_linear_49_177" x1="34.7627" y1="13.296" x2="34.7627" y2="25.5692" gradientUnits="userSpaceOnUse">
<stop stop-color="#4D4D4D"/>
<stop offset="1" stop-color="#333333"/>
</linearGradient>
<linearGradient id="paint6_linear_49_177" x1="40.7059" y1="13.296" x2="40.7059" y2="25.5692" gradientUnits="userSpaceOnUse">
<stop stop-color="#4D4D4D"/>
<stop offset="1" stop-color="#333333"/>
</linearGradient>
<linearGradient id="paint7_linear_49_177" x1="46.7215" y1="13.296" x2="46.7215" y2="25.5692" gradientUnits="userSpaceOnUse">
<stop stop-color="#4D4D4D"/>
<stop offset="1" stop-color="#333333"/>
</linearGradient>
<linearGradient id="paint8_linear_49_177" x1="30.9995" y1="10.833" x2="30.9995" y2="6.58594" gradientUnits="userSpaceOnUse">
<stop stop-color="#D3B4A0" stop-opacity="0"/>
<stop offset="1" stop-color="#D3B4A0"/>
</linearGradient>
<linearGradient id="paint9_linear_49_177" x1="20.5037" y1="37.1761" x2="10.2402" y2="26.9125" gradientUnits="userSpaceOnUse">
<stop stop-color="#D48000" stop-opacity="0"/>
<stop offset="1" stop-color="#D48000"/>
</linearGradient>
<linearGradient id="paint10_linear_49_177" x1="36.2534" y1="37.1758" x2="25.9898" y2="26.9123" gradientUnits="userSpaceOnUse">
<stop stop-color="#D48000" stop-opacity="0"/>
<stop offset="1" stop-color="#D48000"/>
</linearGradient>
<linearGradient id="paint11_linear_49_177" x1="15.2495" y1="32.496" x2="15.2495" y2="35.3414" gradientUnits="userSpaceOnUse">
<stop stop-color="#FFF2EB"/>
<stop offset="1" stop-color="#F1DACB"/>
</linearGradient>
<linearGradient id="paint12_linear_49_177" x1="30.9994" y1="32.496" x2="30.9994" y2="35.3414" gradientUnits="userSpaceOnUse">
<stop stop-color="#FFF2EB"/>
<stop offset="1" stop-color="#F1DACB"/>
</linearGradient>
<linearGradient id="paint13_linear_49_177" x1="51.9971" y1="37.1701" x2="41.7405" y2="26.9134" gradientUnits="userSpaceOnUse">
<stop stop-color="#D48000" stop-opacity="0"/>
<stop offset="1" stop-color="#D48000"/>
</linearGradient>
<linearGradient id="paint14_linear_49_177" x1="46.7494" y1="32.496" x2="46.7494" y2="35.3414" gradientUnits="userSpaceOnUse">
<stop stop-color="#FFF2EB"/>
<stop offset="1" stop-color="#F1DACB"/>
</linearGradient>
<linearGradient id="paint15_linear_49_177" x1="20.5038" y1="45.7507" x2="10.2403" y2="35.4872" gradientUnits="userSpaceOnUse">
<stop stop-color="#D48000" stop-opacity="0"/>
<stop offset="1" stop-color="#D48000"/>
</linearGradient>
<linearGradient id="paint16_linear_49_177" x1="36.2535" y1="45.7504" x2="25.99" y2="35.4869" gradientUnits="userSpaceOnUse">
<stop stop-color="#D48000" stop-opacity="0"/>
<stop offset="1" stop-color="#D48000"/>
</linearGradient>
<linearGradient id="paint17_linear_49_177" x1="15.2495" y1="41.0707" x2="15.2495" y2="43.9161" gradientUnits="userSpaceOnUse">
<stop stop-color="#FFF2EB"/>
<stop offset="1" stop-color="#F1DACB"/>
</linearGradient>
<linearGradient id="paint18_linear_49_177" x1="30.9994" y1="41.0707" x2="30.9994" y2="43.9161" gradientUnits="userSpaceOnUse">
<stop stop-color="#FFF2EB"/>
<stop offset="1" stop-color="#F1DACB"/>
</linearGradient>
<linearGradient id="paint19_linear_49_177" x1="51.9971" y1="45.7449" x2="41.7404" y2="35.4882" gradientUnits="userSpaceOnUse">
<stop stop-color="#D48000" stop-opacity="0"/>
<stop offset="1" stop-color="#D48000"/>
</linearGradient>
<linearGradient id="paint20_linear_49_177" x1="46.7494" y1="41.0707" x2="46.7494" y2="43.9161" gradientUnits="userSpaceOnUse">
<stop stop-color="#FFF2EB"/>
<stop offset="1" stop-color="#F1DACB"/>
</linearGradient>
<linearGradient id="paint21_linear_49_177" x1="20.5039" y1="54.3254" x2="10.2404" y2="44.0619" gradientUnits="userSpaceOnUse">
<stop stop-color="#D48000" stop-opacity="0"/>
<stop offset="1" stop-color="#D48000"/>
</linearGradient>
<linearGradient id="paint22_linear_49_177" x1="36.2536" y1="54.3252" x2="25.9901" y2="44.0617" gradientUnits="userSpaceOnUse">
<stop stop-color="#D48000" stop-opacity="0"/>
<stop offset="1" stop-color="#D48000"/>
</linearGradient>
<linearGradient id="paint23_linear_49_177" x1="15.2495" y1="49.6456" x2="15.2495" y2="52.4909" gradientUnits="userSpaceOnUse">
<stop stop-color="#FFF2EB"/>
<stop offset="1" stop-color="#F1DACB"/>
</linearGradient>
<linearGradient id="paint24_linear_49_177" x1="30.9994" y1="49.6456" x2="30.9994" y2="52.4909" gradientUnits="userSpaceOnUse">
<stop stop-color="#FFF2EB"/>
<stop offset="1" stop-color="#F1DACB"/>
</linearGradient>
<linearGradient id="paint25_linear_49_177" x1="51.9855" y1="54.3075" x2="41.7436" y2="44.0656" gradientUnits="userSpaceOnUse">
<stop stop-color="#D48000" stop-opacity="0"/>
<stop offset="1" stop-color="#D48000"/>
</linearGradient>
<linearGradient id="paint26_linear_49_177" x1="46.7494" y1="49.6456" x2="46.7494" y2="52.4909" gradientUnits="userSpaceOnUse">
<stop stop-color="#FFF2EB"/>
<stop offset="1" stop-color="#F1DACB"/>
</linearGradient>
<linearGradient id="paint27_linear_49_177" x1="19.8194" y1="62.2153" x2="10.4168" y2="52.8127" gradientUnits="userSpaceOnUse">
<stop stop-color="#D48000" stop-opacity="0"/>
<stop offset="1" stop-color="#D48000"/>
</linearGradient>
<linearGradient id="paint28_linear_49_177" x1="35.5689" y1="62.2153" x2="26.1662" y2="52.8127" gradientUnits="userSpaceOnUse">
<stop stop-color="#D48000" stop-opacity="0"/>
<stop offset="1" stop-color="#D48000"/>
</linearGradient>
<linearGradient id="paint29_linear_49_177" x1="15.2495" y1="58.2202" x2="15.2495" y2="61.0644" gradientUnits="userSpaceOnUse">
<stop stop-color="#FFF2EB"/>
<stop offset="1" stop-color="#F1DACB"/>
</linearGradient>
<linearGradient id="paint30_linear_49_177" x1="30.9994" y1="58.2202" x2="30.9994" y2="61.0644" gradientUnits="userSpaceOnUse">
<stop stop-color="#FFF2EB"/>
<stop offset="1" stop-color="#F1DACB"/>
</linearGradient>
<linearGradient id="paint31_linear_49_177" x1="49.6365" y1="60.5333" x2="42.3514" y2="53.247" gradientUnits="userSpaceOnUse">
<stop stop-color="#D48000" stop-opacity="0"/>
<stop offset="1" stop-color="#D48000"/>
</linearGradient>
<linearGradient id="paint32_linear_49_177" x1="46.7494" y1="58.2202" x2="46.7494" y2="61.0644" gradientUnits="userSpaceOnUse">
<stop stop-color="#FE7695"/>
<stop offset="1" stop-color="#FE547B"/>
</linearGradient>
</defs>
</svg>
