<svg width="20" height="20" viewBox="0 0 20 20" fill="none" xmlns="http://www.w3.org/2000/svg">
<path d="M18.3007 13.1417C18.0656 13.1514 17.9877 13.0951 17.9422 12.8619C17.6957 11.6116 17.3507 10.392 16.7314 9.26548C15.7671 7.51215 14.3314 6.56645 12.2861 6.66841C11.4604 6.70988 10.6626 6.89585 9.89662 7.18872C9.5146 7.33538 9.15137 7.36208 8.75867 7.28064C7.9453 7.11155 7.28311 6.74665 6.92287 5.95037C6.61708 5.27357 6.62711 5.27549 7.2987 4.9775L8.54727 4.48797C8.67389 4.4309 8.76529 4.39006 8.85668 4.34774C9.48236 4.06278 10.0969 3.76224 10.6293 3.31503C11.4251 2.64465 12.2823 2.07303 11.7828 1.16922C11.2831 0.265628 9.77235 0.708135 8.98673 1.08308C7.75994 1.66774 7.65915 2.0553 6.65295 2.94393C6.37236 3.19169 6.09113 3.43944 5.81011 3.68741C5.78641 3.66924 5.76377 3.65044 5.74007 3.63183C5.79751 3.43794 5.85688 3.24406 5.91368 3.04996C6.02664 2.66688 6.13854 2.2851 6.11547 1.87616C6.08408 1.32185 5.58504 0.973208 5.05909 1.14443C4.616 1.28915 4.34202 1.60146 4.18208 2.02665C4.03709 2.41186 3.95445 2.81353 3.91046 3.22161C3.88014 3.49652 3.76269 3.64103 3.48594 3.73445C2.67855 4.00572 2.05202 4.50401 1.8325 5.36677C1.63113 6.59488 0.998629 6.90569 0.813916 7.71438C0.612549 8.59638 1.33538 9.26057 2.03088 9.57629C2.56067 9.81679 2.54295 9.81551 2.47696 10.4025C2.35845 11.4617 2.52373 12.4528 3.29077 13.2591C3.76312 13.7574 4.35825 14.0819 4.97474 14.3671C5.41997 14.5731 5.8746 14.761 6.32068 14.9667C6.43514 15.0191 6.6284 15.0364 6.62541 15.1779C6.62327 15.3087 6.43514 15.3416 6.32261 15.4047C6.07319 15.5445 5.81246 15.6648 5.56112 15.8042C5.21327 15.9988 4.8526 16.1775 4.56987 16.4688C4.3275 16.7174 4.34843 16.9643 4.65166 17.1204C4.8716 17.2341 4.9015 17.3474 4.83295 17.5747C4.66447 18.1223 4.87182 18.4718 5.42681 18.6127C5.75673 18.6971 6.09241 18.7113 6.43194 18.673C6.90087 18.6204 7.36447 18.5432 7.82166 18.4295C7.92757 18.4028 8.01897 18.3977 8.10673 18.4759C8.4501 18.7797 8.87633 18.8972 9.30832 18.9885C10.4194 19.2215 11.5424 19.2459 12.666 19.1084C13.4497 19.0131 14.2259 18.8748 14.9385 18.5058C15.2614 18.3387 15.5638 18.1375 15.7222 17.7978C15.8089 17.6103 15.9392 17.5214 16.1264 17.4639C16.9037 17.2239 17.6432 16.9011 18.306 16.4212C18.917 15.9782 19.4182 15.4496 19.5811 14.6783C19.763 13.8177 19.179 13.1069 18.3007 13.1417Z" fill="#F8CA00"/>
</svg>
