<svg width="21" height="21" viewBox="0 0 21 21" fill="none" xmlns="http://www.w3.org/2000/svg">
<path d="M10.582 20.4668C16.0865 20.4668 20.5488 16.0045 20.5488 10.5C20.5488 4.99549 16.0865 0.533203 10.582 0.533203C5.07752 0.533203 0.615234 4.99549 0.615234 10.5C0.615234 16.0045 5.07752 20.4668 10.582 20.4668Z" fill="#F8CA00"/>
<path d="M8.6666 12.5795L6.5625 10.5L5.25 11.8125L8.6707 15.0938L15.75 7.21875L14.4252 5.90625L8.6666 12.5795Z" fill="white"/>
<path d="M10.5 0C4.70039 0 0 4.70039 0 10.5C0 16.2996 4.70039 21 10.5 21C16.2996 21 21 16.2996 21 10.5C21 4.70039 16.2996 0 10.5 0ZM10.5 19.3594C5.60684 19.3594 1.64062 15.3932 1.64062 10.5C1.64062 5.60684 5.60684 1.64062 10.5 1.64062C15.3932 1.64062 19.3594 5.60684 19.3594 10.5C19.3594 15.3932 15.3932 19.3594 10.5 19.3594Z" fill="#F8CA00"/>
</svg>
