<svg width="40" height="42" viewBox="0 0 40 42" fill="none" xmlns="http://www.w3.org/2000/svg">
<path d="M36.3248 25.7841V10.4861L18.1624 0L0 10.4861V31.4582L18.1624 41.9442L22.994 39.1547C24.7101 40.9091 27.102 42 29.7441 42C34.9527 42 39.1903 37.7624 39.1903 32.5539C39.1903 29.9015 38.091 27.5016 36.3248 25.7841ZM18.1624 2.84534L32.6285 11.1973L26.6276 14.662L12.1615 6.31001L18.1624 2.84534ZM16.9303 38.3874L2.46422 30.0354V13.3315L16.9303 21.6835V38.3874ZM3.69633 11.1973L9.69724 7.73268L24.1634 16.0847L18.1624 19.5494L3.69633 11.1973ZM19.3945 38.3874V21.6834L33.8605 13.3314V24.053C32.6156 23.4476 31.2189 23.1078 29.7441 23.1078C24.5355 23.1078 20.298 27.3454 20.298 32.5539C20.298 34.2291 20.7368 35.8035 21.5048 37.1691L19.3945 38.3874ZM29.7441 39.5358C25.8943 39.5358 22.7622 36.4037 22.7622 32.5539C22.7622 28.704 25.8943 25.5719 29.7441 25.5719C33.5939 25.5719 36.726 28.704 36.726 32.5539C36.726 36.4037 33.594 39.5358 29.7441 39.5358Z" fill="#F8CA00"/>
<path d="M32.6615 28.9744L28.627 33.0312L26.8197 31.2423L25.0862 32.9935L28.6406 36.5121L34.4088 30.712L32.6615 28.9744Z" fill="#F8CA00"/>
</svg>
