<svg width="32" height="32" viewBox="0 0 32 32" fill="none" xmlns="http://www.w3.org/2000/svg">
<circle cx="16" cy="16" r="16" fill="#222222"/>
<circle cx="15.9999" cy="15.9999" r="10.3529" fill="white"/>
<path d="M24.6503 7.34697C19.8714 2.56953 12.1244 2.57068 7.34698 7.3496C2.56953 12.1285 2.57067 19.8755 7.34961 24.6529C12.1285 29.4304 19.8755 29.4292 24.6529 24.6503C26.9473 22.3552 28.236 19.2426 28.2352 15.9973C28.2346 12.7526 26.945 9.64099 24.6503 7.34697ZM22.2946 20.8083L22.293 20.8099V20.8058L21.673 21.4217C20.8713 22.2335 19.7036 22.5676 18.5938 22.3026C17.4756 22.0033 16.4127 21.5269 15.4453 20.8915C14.5464 20.317 13.7135 19.6455 12.9615 18.8889C12.2696 18.2021 11.648 17.4479 11.1058 16.6377C10.5128 15.7658 10.0434 14.816 9.71097 13.8154C9.32991 12.6398 9.64568 11.3499 10.5267 10.4833L11.2526 9.75737C11.4544 9.55463 11.7824 9.55391 11.9851 9.75575L11.9867 9.75737L14.2788 12.0494C14.4815 12.2513 14.4823 12.5792 14.2804 12.7819L14.2788 12.7835L12.9329 14.1294C12.5467 14.5114 12.4982 15.1184 12.8187 15.5569C13.3055 16.225 13.8442 16.8536 14.4297 17.4371C15.0825 18.0927 15.7922 18.6891 16.5505 19.2193C16.9886 19.5249 17.5826 19.4734 17.9616 19.097L19.2626 17.7756C19.4645 17.5728 19.7924 17.5721 19.9951 17.774L19.9967 17.7756L22.2929 20.0758C22.4957 20.2776 22.4964 20.6055 22.2946 20.8083Z" fill="#222222"/>
</svg>
