<svg width="42" height="37" viewBox="0 0 42 37" fill="none" xmlns="http://www.w3.org/2000/svg">
<path d="M35.9661 21.3591C35.5637 21.3385 35.1658 21.3696 34.7728 21.4512C35.0171 20.6059 35.1897 19.7292 35.2819 18.8283C35.6965 18.8899 36.0954 18.9219 36.4771 18.9219C37.8014 18.9219 38.9261 18.5514 39.8378 17.8117C42.1399 15.9441 42.0034 12.4732 41.9964 12.3263L41.9578 11.5088L41.2125 11.2128C41.0786 11.1595 37.9056 9.92949 35.447 11.5748C35.1113 11.7993 34.8086 12.0628 34.5385 12.3638C34.2478 11.5258 33.8818 10.7147 33.4427 9.93839C35.0988 9.04621 36.1397 7.85203 36.5426 6.3749C37.3328 3.47867 35.2297 0.752843 35.1398 0.638203L34.6391 0L33.8662 0.208955C33.7274 0.246496 30.454 1.16068 29.4096 3.97132C28.74 5.77331 29.1395 7.82834 30.5972 10.0791L30.6601 10.1004L30.6286 10.1239C32.1145 12.2141 32.8999 14.6903 32.8999 17.2847C32.8999 24.0026 27.5617 29.468 21 29.468C14.4383 29.468 9.1001 24.0026 9.1001 17.2847C9.1001 14.6904 9.88556 12.2142 11.3714 10.1239L11.3399 10.1004L11.4029 10.0791C12.8605 7.82834 13.2601 5.77331 12.5904 3.97132C11.546 1.16068 8.27264 0.246496 8.13385 0.208955L7.36094 0L6.8603 0.638203C6.77039 0.752759 4.66725 3.47858 5.45747 6.3749C5.86049 7.85211 6.90131 9.04621 8.55738 9.93839C8.11801 10.7152 7.75182 11.5268 7.4611 12.3652C7.19089 12.0641 6.88885 11.7995 6.55309 11.5748C4.09451 9.92949 0.921506 11.1596 0.78763 11.2128L0.0422868 11.5088L0.0036497 12.3263C-0.00324099 12.4731 -0.139824 15.944 2.16224 17.8117C3.07403 18.5514 4.19852 18.9219 5.52301 18.9219C5.90462 18.9219 6.30355 18.8899 6.71805 18.8282C6.81034 19.7297 6.9831 20.6069 7.22772 21.4528C6.83446 21.371 6.43644 21.3388 6.03391 21.359C3.1002 21.5075 1.23963 24.4122 1.16178 24.5358L0.728813 25.2238L1.16695 25.9083C1.24562 26.0314 3.12784 28.9214 6.06254 29.047C6.13038 29.0499 6.19781 29.0514 6.26548 29.0514C7.69112 29.0514 9.05589 28.404 10.3377 27.1231C10.9225 27.7868 11.5656 28.3952 12.2583 28.941C11.8904 29.112 11.5475 29.3266 11.2315 29.5871C8.94326 31.4726 9.1056 34.9423 9.11364 35.0891L9.15834 35.9063L9.90582 36.1965C9.98572 36.2275 11.1448 36.6671 12.5862 36.6671C13.5667 36.6671 14.678 36.4635 15.6684 35.7897C16.9164 34.9406 17.7042 33.5575 18.021 31.6684C18.9824 31.8768 19.9788 31.9874 20.9999 31.9874C22.0211 31.9874 23.0175 31.8768 23.9789 31.6684C24.2957 33.5575 25.0836 34.9406 26.3315 35.7898C27.322 36.4637 28.433 36.667 29.4136 36.667C30.8548 36.667 32.014 36.2276 32.094 36.1965L32.8415 35.9063L32.8862 35.0891C32.8942 34.9424 33.0566 31.4726 30.7685 29.5871C30.4524 29.3266 30.1092 29.1124 29.7412 28.9414C30.434 28.3955 31.0773 27.7868 31.6622 27.1231C32.944 28.404 34.3086 29.0514 35.7344 29.0514C35.8019 29.0514 35.8695 29.0499 35.9374 29.047C38.8721 28.9214 40.7543 26.0314 40.833 25.9083L41.2711 25.2238L40.8381 24.5358C40.7605 24.4122 38.8997 21.5075 35.9661 21.3591ZM36.7856 13.689C37.6256 13.1216 38.7326 13.19 39.4826 13.335C39.3799 14.1072 39.0943 15.2002 38.3093 15.8369C37.6547 16.3682 36.6969 16.5254 35.4547 16.3075C35.6449 15.0368 36.0908 14.1581 36.7856 13.689ZM3.69829 15.843C2.90701 15.2065 2.62014 14.1097 2.51736 13.3353C3.26853 13.1899 4.37497 13.122 5.21465 13.6891C5.90947 14.1582 6.35531 15.0369 6.54554 16.3077C5.30792 16.5246 4.35266 16.3693 3.69829 15.843ZM6.17492 26.5303C5.3482 26.4983 4.61508 25.9899 4.14569 25.569C4.011 25.4482 3.88902 25.327 3.78106 25.212C3.8882 25.0961 4.00936 24.9739 4.14307 24.8521C4.60934 24.4276 5.33869 23.9134 6.16516 23.8751C6.99647 23.8355 7.86175 24.279 8.74523 25.1927C7.86856 26.1131 7.00615 26.5612 6.17492 26.5303ZM14.3143 33.686C13.4786 34.2598 12.3712 34.2 11.62 34.061C11.717 33.288 11.9944 32.1929 12.7746 31.55C13.4254 31.0136 14.3817 30.8489 15.6257 31.0572C15.445 32.3294 15.0056 33.2114 14.3143 33.686ZM7.83033 5.70637C7.60441 4.89155 7.85026 4.02062 8.09619 3.43348C8.16674 3.26501 8.24172 3.1088 8.31514 2.96812C8.45582 3.03657 8.60684 3.11686 8.76123 3.20933C9.29977 3.53225 10.0027 4.08344 10.2937 4.87635C10.5864 5.67404 10.4427 6.65314 9.8671 7.79567C8.74113 7.22651 8.05756 6.52607 7.83033 5.70637ZM27.6859 33.686C26.9946 33.2114 26.5553 32.3293 26.3745 31.0571C27.614 30.8498 28.5678 31.0125 29.2182 31.5439C30.0047 32.1865 30.2833 33.2855 30.3804 34.0608C29.6283 34.2001 28.5214 34.2596 27.6859 33.686ZM31.7065 4.87635C31.9975 4.08353 32.7005 3.53217 33.239 3.20933C33.3935 3.11669 33.5445 3.03657 33.6851 2.96812C33.7586 3.1088 33.8335 3.26509 33.9041 3.43348C34.15 4.02062 34.3958 4.89155 34.1699 5.70637C33.9426 6.52607 33.259 7.22651 32.1331 7.79559C31.5574 6.65314 31.4138 5.67404 31.7065 4.87635ZM37.9006 25.5272C37.4234 25.9647 36.6777 26.4937 35.8348 26.5298C34.9993 26.5654 34.1351 26.1165 33.2551 25.1925C34.1387 24.2789 35.0052 23.8365 35.8351 23.8751C36.6616 23.9134 37.3909 24.4275 37.8572 24.8521C37.9909 24.9738 38.1121 25.0961 38.2191 25.2119C38.1235 25.3137 38.0171 25.4206 37.9006 25.5272Z" fill="#F8CA00"/>
<path d="M19.7696 21.6939H22.2305V12.8755H19.7696C19.7696 13.9174 18.9416 14.7652 17.9238 14.7652V17.2847C18.584 17.2847 19.2098 17.1314 19.7696 16.8584V21.6939Z" fill="#F8CA00"/>
<path d="M21.0002 26.9483C26.2048 26.9483 30.4391 22.6132 30.4391 17.2846C30.4391 11.9561 26.2048 7.62097 21.0002 7.62097C15.7955 7.62097 11.5613 11.9561 11.5613 17.2846C11.5613 22.6132 15.7955 26.9483 21.0002 26.9483ZM21.0002 10.1404C24.8478 10.1404 27.9782 13.3453 27.9782 17.2846C27.9782 21.2238 24.8478 24.4287 21.0002 24.4287C17.1525 24.4287 14.0222 21.2238 14.0222 17.2846C14.0222 13.3453 17.1525 10.1404 21.0002 10.1404Z" fill="#F8CA00"/>
</svg>
