<svg width="30" height="24" viewBox="0 0 30 24" fill="none" xmlns="http://www.w3.org/2000/svg">
<path fill-rule="evenodd" clip-rule="evenodd" d="M0 0.984121C0 0.440621 0.454954 0 1.01613 0H8.90971C9.47089 0 9.92584 0.440621 9.92584 0.984121V1.84886H24.7177C25.2789 1.84886 25.7339 2.28948 25.7339 2.83298V5.62694H28.9839C29.2729 5.62694 29.5481 5.74609 29.7409 5.95457C29.9336 6.16306 30.0256 6.44112 29.9938 6.7192L28.1199 23.1241C28.0629 23.6227 27.6279 24 27.1099 24H1.01613C0.710761 24 0.421641 23.867 0.228649 23.6378C0.0779243 23.4589 -0.000644809 23.2363 0.00104441 23.0099L0 0.984121ZM0.291538 0.984121C0.291538 0.984123 0.291538 0.984119 0.291538 0.984121L0.292582 23.0104L0.292578 23.0115C0.291271 23.1736 0.347429 23.3321 0.454553 23.4593C0.592184 23.6228 0.798371 23.7176 1.01613 23.7176H27.1099C27.4793 23.7176 27.7895 23.4486 27.8301 23.093L29.7041 6.68814C29.7267 6.4899 29.6611 6.29162 29.5237 6.14292C29.3862 5.99424 29.1899 5.90929 28.9839 5.90929H25.4423V2.83298C25.4423 2.44542 25.1179 2.13121 24.7177 2.13121H9.6343V0.984121C9.6343 0.59656 9.30988 0.282353 8.90971 0.282353H1.01613C0.615969 0.282353 0.291541 0.596563 0.291538 0.984121ZM1.74073 1.68589H8.18511V2.83298C8.18511 3.22054 8.50954 3.53475 8.90971 3.53475H23.9931V5.90929H4.49783C4.15388 5.90929 3.85734 6.14344 3.78812 6.46976L2.02928 14.7569L1.74073 14.7284V1.68589ZM2.03227 1.96824V13.3404L3.50255 6.41293C3.59962 5.95531 4.0155 5.62694 4.49783 5.62694H23.7016V3.8171H8.90971C8.34853 3.8171 7.89357 3.37648 7.89357 2.83298V1.96824H2.03227ZM5.08861 7.31288H28.1747L26.4611 22.3142H1.90477L5.08861 7.31288ZM5.32632 7.59523L2.26233 22.0319H26.2L27.8491 7.59523H5.32632Z" fill="white"/>
</svg>
