<svg width="598" height="376" viewBox="0 0 598 376" fill="none" xmlns="http://www.w3.org/2000/svg">
<g filter="url(#filter0_d_49_143)">
<path d="M29 233.659H69.3162C71.4664 248.951 78.9921 261.024 91.8933 269.878C104.794 278.463 119.577 282.756 136.241 282.756C154.249 282.756 169.704 277.659 182.605 267.463C195.775 257 202.36 242.78 202.36 224.805C202.36 207.098 195.775 193.146 182.605 182.951C169.435 172.756 154.652 167.659 138.257 167.659H111.648V130.232L179.379 66.2439H35.8538V26H232.597V66.2439L164.462 130.232C187.577 135.598 206.391 146.866 220.905 164.037C235.419 180.939 242.676 201.195 242.676 224.805C242.676 253.244 232.731 276.72 212.842 295.232C193.221 313.744 167.688 323 136.241 323C106.407 323 81.5454 314.683 61.6561 298.049C42.0356 281.146 31.1502 259.683 29 233.659Z" fill="white"/>
<path d="M391.395 321.793H286.976V26H391.395C433.055 26 469.071 40.4878 499.443 69.4634C529.814 98.1707 545 132.915 545 173.695C545 214.744 529.814 249.756 499.443 278.732C469.071 307.439 433.055 321.793 391.395 321.793ZM327.293 286.78H391.395C422.842 286.78 449.585 275.11 471.625 251.768C493.664 228.427 504.684 202.402 504.684 173.695C504.684 142.037 492.858 115.341 469.206 93.6098C445.822 71.8781 419.885 61.0122 391.395 61.0122H327.293V286.78Z" fill="white"/>
</g>
<defs>
<filter id="filter0_d_49_143" x="0" y="-3" width="598" height="379" filterUnits="userSpaceOnUse" color-interpolation-filters="sRGB">
<feFlood flood-opacity="0" result="BackgroundImageFix"/>
<feColorMatrix in="SourceAlpha" type="matrix" values="0 0 0 0 0 0 0 0 0 0 0 0 0 0 0 0 0 0 127 0" result="hardAlpha"/>
<feOffset dx="12" dy="12"/>
<feGaussianBlur stdDeviation="20.5"/>
<feComposite in2="hardAlpha" operator="out"/>
<feColorMatrix type="matrix" values="0 0 0 0 0 0 0 0 0 0 0 0 0 0 0 0 0 0 0.07 0"/>
<feBlend mode="normal" in2="BackgroundImageFix" result="effect1_dropShadow_49_143"/>
<feBlend mode="normal" in="SourceGraphic" in2="effect1_dropShadow_49_143" result="shape"/>
</filter>
</defs>
</svg>
