<svg width="22" height="22" viewBox="0 0 22 22" fill="none" xmlns="http://www.w3.org/2000/svg">
<path fill-rule="evenodd" clip-rule="evenodd" d="M15.4353 6.63438C15.5748 6.63438 15.6445 6.67899 15.6445 6.76881C15.6435 6.78639 15.641 6.80385 15.6371 6.821C15.6321 6.84589 13.4979 8.7809 9.23443 12.626L9.01033 14.8076L7.96437 11.371C12.9152 8.21324 15.4055 6.63438 15.4353 6.63438ZM17.8111 4.46773C17.7514 4.46773 13.0546 6.21096 3.72097 9.69743C3.49182 9.78695 3.37726 9.95132 3.37727 10.1905C3.40716 10.4196 3.52671 10.569 3.73591 10.6387L7.14263 11.6996L8.51723 15.8384C8.6069 16.0775 8.78622 16.1971 9.05518 16.1971C9.18458 16.193 9.30752 16.1396 9.39884 16.0478L11.3264 14.2398L14.8078 16.7648C14.9263 16.8606 15.0738 16.9133 15.2262 16.9144C15.6147 16.9144 15.8537 16.7201 15.9434 16.3315L18.3042 5.00575C18.3115 4.93309 18.301 4.85975 18.2737 4.79204C18.2464 4.72433 18.203 4.66427 18.1473 4.61702C18.0328 4.51749 17.9207 4.46773 17.8111 4.46773ZM11 0C17.0751 0 22 4.92503 22 11.0002C22 17.0753 17.0751 22 11 22C4.92491 22 0 17.0753 0 11.0002C0 4.92504 4.92485 0 11 0Z" fill="#222222"/>
</svg>
