<svg width="52" height="52" viewBox="0 0 52 52" fill="none" xmlns="http://www.w3.org/2000/svg">
<g filter="url(#filter0_d_127_538)">
<circle cx="20" cy="20" r="16" fill="#222222"/>
<circle cx="19.9999" cy="20.0002" r="10.6667" fill="#F8CA00"/>
<path fill-rule="evenodd" clip-rule="evenodd" d="M20 16.9641C21.7032 16.9641 23.0838 18.3234 23.0838 20.0002C23.0838 21.6766 21.7032 23.0359 20 23.0359C18.2969 23.0359 16.9163 21.6766 16.9163 20.0002C16.9163 18.3234 18.2969 16.9641 20 16.9641ZM20 15.7501C17.6157 15.7501 15.6828 17.6529 15.6828 20.0002C15.6828 22.3472 17.6157 24.2502 20 24.2502C22.3844 24.2502 24.3173 22.3472 24.3173 20.0002C24.3173 17.6529 22.3844 15.7501 20 15.7501ZM24.4506 14.7285C24.2112 14.7322 23.9783 14.8066 23.7811 14.9423C23.5839 15.078 23.4312 15.269 23.3422 15.4912C23.2532 15.7135 23.2318 15.9571 23.2808 16.1914C23.3298 16.4257 23.447 16.6403 23.6176 16.8083C23.7882 16.9762 24.0046 17.09 24.2397 17.1353C24.4748 17.1807 24.718 17.1555 24.9388 17.063C25.1596 16.9706 25.3482 16.8149 25.4808 16.6156C25.6134 16.4163 25.6841 16.1822 25.6841 15.9428C25.6816 15.6182 25.5502 15.3079 25.3188 15.0802C25.0875 14.8525 24.7752 14.7259 24.4506 14.7285ZM16.9865 13.4068H23.0136C24.9743 13.4068 26.5638 14.9716 26.5638 16.9016V23.0984C26.5638 25.0288 24.9743 26.5932 23.0136 26.5932H16.9865C15.0258 26.5932 13.4363 25.0288 13.4363 23.0984V16.9016C13.4363 14.9716 15.0257 13.4068 16.9865 13.4068ZM16.4181 12.1982C14.0875 12.1982 12.1981 14.0582 12.1981 16.3524V23.6476C12.1981 25.9421 14.0874 27.8018 16.4181 27.8018H23.5821C25.9126 27.8018 27.8019 25.9421 27.8019 23.6476V16.3524C27.8019 14.0582 25.9126 12.1982 23.5821 12.1982H16.4181ZM20 7.80957C26.7327 7.80957 32.1905 13.2672 32.1905 20.0002C32.1905 26.7328 26.7327 32.1905 20 32.1905C13.2674 32.1905 7.80957 26.7328 7.80957 20.0002C7.80957 13.2673 13.2674 7.80957 20 7.80957Z" fill="#222222"/>
</g>
<defs>
<filter id="filter0_d_127_538" x="0" y="0" width="52" height="52" filterUnits="userSpaceOnUse" color-interpolation-filters="sRGB">
<feFlood flood-opacity="0" result="BackgroundImageFix"/>
<feColorMatrix in="SourceAlpha" type="matrix" values="0 0 0 0 0 0 0 0 0 0 0 0 0 0 0 0 0 0 127 0" result="hardAlpha"/>
<feOffset dx="6" dy="6"/>
<feGaussianBlur stdDeviation="5"/>
<feComposite in2="hardAlpha" operator="out"/>
<feColorMatrix type="matrix" values="0 0 0 0 0.766667 0 0 0 0 0.766667 0 0 0 0 0.766667 0 0 0 0.5 0"/>
<feBlend mode="normal" in2="BackgroundImageFix" result="effect1_dropShadow_127_538"/>
<feBlend mode="normal" in="SourceGraphic" in2="effect1_dropShadow_127_538" result="shape"/>
</filter>
</defs>
</svg>
