<svg width="43" height="43" viewBox="0 0 43 43" fill="none" xmlns="http://www.w3.org/2000/svg">
<path d="M21.5 0C9.61767 0 0 9.61607 0 21.5C0 33.3823 9.61607 43 21.5 43C33.3823 43 43 33.3841 43 21.5C43 9.61767 33.3841 0 21.5 0ZM21.5 40.4706C11.0396 40.4706 2.52941 31.9604 2.52941 21.5C2.52941 11.0396 11.0396 2.52941 21.5 2.52941C31.9604 2.52941 40.4706 11.0396 40.4706 21.5C40.4706 31.9604 31.9604 40.4706 21.5 40.4706Z" fill="#F8CA00"/>
<path d="M22.7648 15.1765H20.2354V27.8236H26.5589V25.2942H22.7648V15.1765Z" fill="#F8CA00"/>
<path d="M31.6177 25.2942V15.1765H29.0883V27.8236H35.4118V25.2942H31.6177Z" fill="#F8CA00"/>
<path d="M13.9118 15.1765C11.8196 15.1765 10.1177 16.8785 10.1177 18.9706V27.8236H12.6471V24.0294H15.1765V27.8236H17.7059V18.9706C17.7059 16.8785 16.004 15.1765 13.9118 15.1765ZM12.6471 21.5V18.9706C12.6471 18.2733 13.2144 17.7059 13.9118 17.7059C14.6092 17.7059 15.1765 18.2733 15.1765 18.9706V21.5H12.6471Z" fill="#F8CA00"/>
</svg>
