<svg width="43" height="43" viewBox="0 0 43 43" fill="none" xmlns="http://www.w3.org/2000/svg">
<path d="M41.7696 19.8043C40.2641 18.3534 37.9355 18.2894 36.353 19.656L29.9651 25.1709C29.4099 23.7636 28.0374 22.7647 26.4351 22.7647H19.2691C19.164 22.733 15.9875 20.8614 11.7253 21.7972C10.2306 22.1256 8.82234 22.7577 7.58815 23.6386V20.2353H0V43.0001H7.58824V40.279L29.537 36.6558L41.6737 25.6828C42.4982 24.9387 42.9814 23.875 42.9995 22.7645C43.0176 21.654 42.5693 20.575 41.7696 19.8043ZM5.05882 40.4706H2.52941V22.7647H5.05882V40.4706ZM39.9781 23.8059L28.3919 34.2812L7.58824 37.7153V27.0209C10.1889 24.082 14.5214 23.2188 18.0598 24.988L18.672 25.2942H26.4351C27.1325 25.2942 27.6998 25.8615 27.6998 26.5589C27.6998 26.8943 27.5677 27.1988 27.3538 27.4254L27.1522 27.5994C26.9483 27.7403 26.7012 27.8235 26.4351 27.8235H15.9594V30.3529H26.4351C27.4559 30.3529 28.3831 29.9469 29.0657 29.2889L38.006 21.5704C38.5928 21.0637 39.4562 21.0875 40.0144 21.6255C40.6359 22.2247 40.6229 23.224 39.9781 23.8059Z" fill="#F8CA00"/>
<path d="M32.8824 0H15.1765V17.7059H32.8824V0ZM22.7647 2.52941H25.2942V5.05882H22.7647V2.52941ZM30.353 15.1765H17.7059V12.6471H20.2353V10.1176H17.7059V2.52941H20.2353V7.58824H27.8236V2.52941H30.353V15.1765Z" fill="#F8CA00"/>
</svg>
