<svg width="43" height="43" viewBox="0 0 43 43" fill="none" xmlns="http://www.w3.org/2000/svg">
<path d="M6.641 26.544L6.641 37.3478C6.641 40.4644 9.17661 43 12.2935 43L37.3327 43C40.4578 43 43 40.4578 43 37.3327L43 27.2615L37.0834 20.7468L37.0834 14.3243C37.0834 10.7457 35.6848 7.25579 33.2296 4.66408L33.2296 0.252936L20.1841 0.252935L20.1841 4.81335C18.7416 5.76966 17.7105 7.23939 17.3083 8.94565L17.2033 9.39116L12.7584 13.8361C11.5193 15.0749 11.2969 16.9816 12.2171 18.4726C12.309 18.6216 12.411 18.7616 12.5199 18.8942L8.60807 22.2588C7.35815 23.3335 6.641 24.8955 6.641 26.544ZM14.5437 15.6214L19.4962 10.669L19.7659 9.52501C20.0588 8.28296 20.8793 7.23971 22.0174 6.66265L22.7089 6.31195L22.7089 2.77772L30.7045 2.77772L30.7045 5.71323L31.0857 6.0846C33.2926 8.23769 34.5583 11.2408 34.5583 14.3239L34.5583 28.0012C34.5583 28.5094 34.1449 28.9228 33.6371 28.9228C33.1289 28.9228 32.7155 28.5094 32.7155 28.0012L32.7155 21.0578L30.1907 21.0578L30.1907 32.2428C30.1907 32.751 29.7774 33.1643 29.2692 33.1643C28.7614 33.1643 28.3477 32.751 28.3477 32.2428L28.3477 21.8704L25.8229 21.8704L25.8229 34.7213C25.8229 34.9723 25.7238 35.2068 25.544 35.382C25.3643 35.5569 25.1287 35.6487 24.8748 35.6425C24.3814 35.6291 23.9802 35.1954 23.9802 34.676L23.9802 21.0578L21.4551 21.0578L21.4551 30.2488C21.4551 30.757 21.0417 31.1703 20.5335 31.1703C20.0257 31.1703 19.6123 30.757 19.6123 30.2488L19.6123 14.0539L16.2943 17.372C16.0249 17.6413 15.6536 17.7706 15.2756 17.7263C14.8974 17.682 14.5657 17.4707 14.3656 17.1469C14.0628 16.6561 14.1363 16.0292 14.5437 15.6214ZM9.16611 26.544C9.16611 25.632 9.56274 24.7678 10.2543 24.1731L10.9265 23.5947L10.9265 36.9321L13.4513 36.9321L13.4513 21.4232L14.8557 20.2156C14.8977 20.2219 14.9397 20.2291 14.9824 20.234C15.7179 20.3196 16.4445 20.1904 17.0872 19.8715L17.0872 30.2488C17.0872 32.149 18.633 33.6951 20.5335 33.6951C20.8524 33.6951 21.1614 33.6515 21.4551 33.5701L21.4551 34.676C21.4551 36.5499 22.9579 38.1158 24.8052 38.1663C25.7435 38.1922 26.6319 37.8461 27.3044 37.1916C27.7775 36.7314 28.1013 36.1605 28.2516 35.5359C28.5734 35.6356 28.9149 35.6891 29.2692 35.6891C31.1694 35.6891 32.7152 34.1433 32.7152 32.2428L32.7152 31.3226C33.0088 31.4039 33.3178 31.4476 33.6367 31.4476C35.5372 31.4476 37.083 29.9017 37.083 28.0012L37.083 24.5021L40.4749 28.2371L40.4749 37.3327C40.4749 39.0655 39.0652 40.4752 37.3327 40.4752L12.2935 40.4752C10.5689 40.4752 9.16611 39.0721 9.16611 37.3478L9.16611 26.544Z" fill="#F8CA00"/>
<path d="M4.92456 15.9038L2.39978 15.9038L2.39978 13.5198L4.92456 13.5198L4.92456 15.9038Z" fill="#F8CA00"/>
<path d="M4.92456 20.8439L2.39978 20.8439L2.39978 18.4746L4.92456 18.4746L4.92456 20.8439Z" fill="#F8CA00"/>
<path d="M2.3844 18.4443L3.05176e-05 18.4443L3.07383e-05 15.9192L2.3844 15.9192L2.3844 18.4443Z" fill="#F8CA00"/>
<path d="M7.32434 18.4443L4.93604 18.4443L4.93604 15.9192L7.32434 15.9192L7.32434 18.4443Z" fill="#F8CA00"/>
<path d="M9.1759 13.948L6.79317 13.948L6.79317 11.4285L9.1759 11.4285L9.1759 13.948Z" fill="#F8CA00"/>
</svg>
