<svg width="10" height="14" viewBox="0 0 10 14" fill="none" xmlns="http://www.w3.org/2000/svg">
<path d="M2.02754 3.82H0.407539C0.563539 3.136 0.845539 2.506 1.25354 1.93C2.18954 0.67 3.43754 0.0399995 4.99754 0.0399995C6.22154 0.0399995 7.22954 0.399999 8.02154 1.12C8.82554 1.828 9.22754 2.668 9.22754 3.64C9.22754 4.396 9.05954 5.008 8.72354 5.476C8.38754 5.944 7.92554 6.358 7.33754 6.718C6.73754 7.09 6.26954 7.474 5.93354 7.87C5.60954 8.266 5.44754 8.776 5.44754 9.4H3.82754C3.82754 7.948 4.45754 6.832 5.71754 6.052C6.12554 5.8 6.43754 5.59 6.65354 5.422C6.88154 5.254 7.09754 5.008 7.30154 4.684C7.50554 4.36 7.60754 4.012 7.60754 3.64C7.60754 3.076 7.36754 2.59 6.88754 2.182C6.40754 1.774 5.77754 1.57 4.99754 1.57C3.98954 1.57 3.19154 1.948 2.60354 2.704C2.33954 3.04 2.14754 3.412 2.02754 3.82ZM3.86354 12.964C3.65954 12.76 3.55754 12.502 3.55754 12.19C3.55754 11.878 3.65954 11.62 3.86354 11.416C4.06754 11.212 4.32554 11.11 4.63754 11.11C4.94954 11.11 5.20754 11.212 5.41154 11.416C5.61554 11.62 5.71754 11.878 5.71754 12.19C5.71754 12.502 5.61554 12.76 5.41154 12.964C5.20754 13.168 4.94954 13.27 4.63754 13.27C4.32554 13.27 4.06754 13.168 3.86354 12.964Z" fill="white"/>
</svg>
