<svg width="43" height="43" viewBox="0 0 43 43" fill="none" xmlns="http://www.w3.org/2000/svg">
<path d="M25.2644 16.2999L24.1425 17.4218C22.7892 16.7176 21.1363 16.9759 20.0052 18.1071C19.259 18.8533 18.938 19.6516 18.9955 20.6269C19.0585 21.4718 19.1976 22.0491 19.5879 23.0899C20.152 24.6798 20.1671 25.3917 19.6478 25.9111C19.3178 26.2411 18.9579 26.4283 18.5779 26.4675C18.1024 26.5042 17.6908 26.3311 17.2831 25.9234C16.5113 25.1516 16.5363 24.2663 17.3725 22.7661L17.6683 22.2353L15.2563 21.6421L15.0763 21.9157C14.0781 23.4323 14.01 25.229 14.8708 26.6938L13.76 27.8046L15.402 29.4466L16.522 28.3265C17.1758 28.7164 17.8989 28.8955 18.6752 28.8597C19.7156 28.8182 20.6368 28.4035 21.4132 27.627L21.4269 27.6127C22.3016 26.6597 22.5985 25.7311 22.4199 24.5112C22.3142 23.745 22.1909 23.3554 21.9464 22.6222L21.6275 21.616C21.5755 21.4385 21.531 21.1981 21.4748 20.8942L21.4697 20.8667C21.4019 20.3137 21.5516 20.0422 21.8323 19.7614C22.2498 19.3439 22.9069 19.3219 23.2971 19.7121C23.7235 20.1384 23.9016 20.5579 23.6223 21.5518L23.4887 22.0274L25.8224 22.5262L25.9518 22.1293C26.3204 20.9991 26.2609 19.9728 25.7757 19.0726L26.9065 17.9418L25.2644 16.2999Z" fill="#F8CA00"/>
<path d="M43 1.78555L41.2246 0L36.3694 4.82772L20.6292 3.00096L0 23.6032L19.3391 42.9674L39.9682 22.3652L38.1593 6.59891L43 1.78555ZM37.3279 21.4435L19.3413 39.4066L3.56094 23.6055L21.5475 5.64235L34.0867 7.09763L31.5651 9.60491C31.1156 9.40507 30.6254 9.29898 30.1186 9.29898C29.1678 9.29898 28.2737 9.66895 27.601 10.3408C26.211 11.729 26.2095 13.9892 27.5977 15.3792C28.2708 16.0532 29.1661 16.4243 30.1186 16.4243C31.0694 16.4243 31.9634 16.0543 32.6362 15.3825C33.7188 14.3012 33.9588 12.691 33.3561 11.3749L35.8843 8.86102L37.3279 21.4435ZM30.8568 13.6009C30.6596 13.7979 30.3974 13.9064 30.1186 13.9064C29.8392 13.9064 29.5766 13.7975 29.3793 13.5999C28.9723 13.1924 28.9727 12.5295 29.3802 12.1224C29.5776 11.9253 29.8398 11.8169 30.1186 11.8169C30.3979 11.8169 30.6604 11.9258 30.8579 12.1233C31.2649 12.5309 31.2644 13.1938 30.8568 13.6009Z" fill="#F8CA00"/>
</svg>
