<svg width="51" height="51" viewBox="0 0 51 51" fill="none" xmlns="http://www.w3.org/2000/svg">
<path d="M26.5625 19.125C27.149 19.125 27.625 18.649 27.625 18.0625C27.625 17.476 27.149 16.9999 26.5625 16.9999L18.0625 16.9999C17.9244 16.9999 17.7863 17.0275 17.6566 17.0807C17.3973 17.1891 17.1892 17.3952 17.0808 17.6566C17.0277 17.7862 17 17.9243 17 18.0625L17 26.5624C17 27.1489 17.476 27.625 18.0625 27.625C18.649 27.625 19.125 27.149 19.125 26.5625L19.125 20.6274L29.75 31.2523L29.75 49.9375C29.75 50.524 30.2259 51 30.8124 51L49.9374 51C50.5239 51 51 50.524 51 49.9375L51 30.8125C51 30.226 50.5239 29.7499 49.9374 29.7499L31.2523 29.7499L20.6274 19.125L26.5625 19.125ZM40.3749 31.875L40.3749 35.2984C40.3749 35.8849 40.851 36.3609 41.4375 36.3609C42.024 36.3609 42.5 35.8849 42.5 35.2984L42.5 31.875L48.875 31.875L48.875 48.875L31.875 48.875L31.875 42.5L35.2983 42.5C35.8848 42.5 36.3609 42.024 36.3609 41.4375C36.3609 40.851 35.8848 40.375 35.2983 40.375L31.875 40.375L31.875 31.875L40.3749 31.875Z" fill="white"/>
<path d="M38.25 1.0625C38.25 1.649 38.726 2.12504 39.3125 2.12504L40.3751 2.12504L40.3751 3.18747C40.3751 3.77397 40.8511 4.25 41.4376 4.25C42.0241 4.25 42.5001 3.77397 42.5001 3.18747L42.5001 1.0625C42.5001 0.476001 42.0241 -3.07642e-05 41.4376 -3.07259e-05L39.3126 -3.0587e-05C38.726 -3.05487e-05 38.25 0.476002 38.25 1.0625Z" fill="white"/>
<path d="M40.375 15.2279L40.375 19.2441C40.375 19.8306 40.851 20.3066 41.4375 20.3066C42.024 20.3066 42.5001 19.8306 42.5001 19.2441L42.5001 15.2279C42.5001 14.6414 42.024 14.1653 41.4375 14.1653C40.851 14.1653 40.375 14.6414 40.375 15.2279Z" fill="white"/>
<path d="M40.375 23.2563L40.375 27.2705C40.375 27.857 40.851 28.333 41.4375 28.333C42.024 28.333 42.5001 27.857 42.5001 27.2705L42.5001 23.2563C42.5001 22.6698 42.024 22.1938 41.4375 22.1938C40.851 22.1938 40.375 22.6698 40.375 23.2563Z" fill="white"/>
<path d="M40.375 7.20163L40.375 11.2158C40.375 11.8023 40.851 12.2783 41.4375 12.2783C42.024 12.2783 42.5001 11.8023 42.5001 11.2158L42.5001 7.20163C42.5001 6.61513 42.024 6.13909 41.4375 6.13909C40.851 6.13909 40.375 6.61294 40.375 7.20163Z" fill="white"/>
<path d="M39.3125 40.3749C38.726 40.3749 38.25 40.851 38.25 41.4375C38.25 42.024 38.726 42.5 39.3125 42.5L41.4375 42.5C42.024 42.5 42.5 42.024 42.5 41.4375L42.5 39.3125C42.5 38.726 42.024 38.25 41.4375 38.25C40.851 38.25 40.375 38.726 40.375 39.3125L40.375 40.375L39.3125 40.375L39.3125 40.3749Z" fill="white"/>
<path d="M28.3323 41.4375C28.3323 40.851 27.8542 40.3749 27.2698 40.3749L23.2556 40.3749C22.6691 40.3749 22.1931 40.851 22.1931 41.4375C22.1931 42.024 22.6691 42.5 23.2577 42.5L27.2697 42.5C27.8564 42.5 28.3323 42.024 28.3323 41.4375Z" fill="white"/>
<path d="M12.2783 41.4375C12.2783 40.851 11.8023 40.3749 11.2158 40.3749L7.20169 40.3749C6.61519 40.3749 6.13916 40.851 6.13916 41.4375C6.13916 42.024 6.61519 42.5 7.20169 42.5L11.2159 42.5C11.8023 42.5 12.2783 42.024 12.2783 41.4375Z" fill="white"/>
<path d="M20.3062 41.4375C20.3062 40.851 19.8302 40.3749 19.2437 40.3749L15.2295 40.3749C14.643 40.3749 14.167 40.851 14.167 41.4375C14.167 42.024 14.643 42.5 15.2295 42.5L19.2437 42.5C19.8303 42.5 20.3062 42.024 20.3062 41.4375Z" fill="white"/>
<path d="M4.25003 41.4375C4.25003 40.851 3.774 40.3749 3.1875 40.3749L2.12497 40.3749L2.12497 39.3124C2.12497 38.7259 1.64893 38.2499 1.06243 38.2499C0.475934 38.2499 -1.10349e-07 38.726 -9.32002e-08 39.3125L-3.10677e-08 41.4375C-1.39189e-08 42.024 0.476033 42.5 1.06253 42.5L3.1875 42.5C3.774 42.5 4.25003 42.024 4.25003 41.4375Z" fill="white"/>
<path d="M-1.4851e-07 7.20149L-3.10699e-08 11.2177C-1.39199e-08 11.8042 0.476033 12.2803 1.06253 12.2803C1.64903 12.2803 2.12507 11.8042 2.12507 11.2177L2.12507 7.20149C2.12507 6.61499 1.64903 6.13895 1.06253 6.13895C0.476033 6.13895 -1.65724e-07 6.6128 -1.4851e-07 7.20149Z" fill="white"/>
<path d="M2.12497 19.2441L2.12497 15.2299C2.12497 14.6434 1.64893 14.1674 1.06243 14.1674C0.475934 14.1674 -1.65588e-07 14.6434 -1.48439e-07 15.2299L-3.10677e-08 19.2441C-1.39189e-08 19.8306 0.476033 20.3066 1.06253 20.3066C1.64903 20.3066 2.12497 19.8306 2.12497 19.2441Z" fill="white"/>
<path d="M2.12497 27.2724L2.12497 23.2562C2.12497 22.6697 1.64893 22.1936 1.06243 22.1936C0.475934 22.1936 -1.65645e-07 22.6697 -1.48496e-07 23.2562L-3.10669e-08 27.2724C-1.39185e-08 27.8589 0.476033 28.335 1.06253 28.335C1.64903 28.335 2.12497 27.8589 2.12497 27.2724Z" fill="white"/>
<path d="M2.12497 35.2983L2.12497 31.2863C2.12497 30.6998 1.64893 30.2238 1.06243 30.2238C0.475934 30.2238 -1.65575e-07 30.6976 -1.48364e-07 31.2863L-3.10654e-08 35.2983C-1.39179e-08 35.8848 0.476033 36.3608 1.06253 36.3608C1.64903 36.3608 2.12497 35.8869 2.12497 35.2983Z" fill="white"/>
<path d="M-9.31955e-08 1.0625L-3.10661e-08 3.18747C-1.39181e-08 3.77397 0.476033 4.25 1.06253 4.25C1.64903 4.25 2.12497 3.77397 2.12497 3.18747L2.12497 2.12494L3.1875 2.12494C3.774 2.12494 4.25003 1.6489 4.25003 1.0624C4.25003 0.476001 3.774 -3.07642e-05 3.1875 -3.07259e-05L1.06253 -3.0587e-05C0.476033 -3.05487e-05 -1.10343e-07 0.476002 -9.31955e-08 1.0625Z" fill="white"/>
<path d="M6.13916 1.06246C6.13916 1.64896 6.61519 2.125 7.20169 2.125L11.2159 2.125C11.8024 2.125 12.2784 1.64896 12.2784 1.06246C12.2784 0.475951 11.8024 -8.52471e-05 11.2159 -8.52087e-05L7.20169 -8.49464e-05C6.613 -8.4908e-05 6.13916 0.475951 6.13916 1.06246Z" fill="white"/>
<path d="M22.1934 1.06246C22.1934 1.64896 22.6694 2.125 23.2559 2.125L27.27 2.125C27.8565 2.125 28.3326 1.64896 28.3326 1.06246C28.3326 0.475951 27.8565 -8.52471e-05 27.27 -8.52087e-05L23.2559 -8.49464e-05C22.6694 -8.49081e-05 22.1934 0.475951 22.1934 1.06246Z" fill="white"/>
<path d="M30.2217 1.06246C30.2217 1.64896 30.6977 2.125 31.2842 2.125L35.3005 2.125C35.887 2.125 36.363 1.64896 36.363 1.06246C36.363 0.475951 35.887 -8.52472e-05 35.3005 -8.52089e-05L31.2842 -8.49464e-05C30.6955 -8.4908e-05 30.2217 0.475951 30.2217 1.06246Z" fill="white"/>
<path d="M14.167 1.06246C14.167 1.64896 14.643 2.125 15.2295 2.125L19.2437 2.125C19.8302 2.125 20.3062 1.64896 20.3062 1.06246C20.3062 0.475951 19.8302 -8.52471e-05 19.2437 -8.52087e-05L15.2295 -8.49464e-05C14.6409 -8.4908e-05 14.167 0.475951 14.167 1.06246Z" fill="white"/>
</svg>
