<svg width="21" height="10" viewBox="0 0 21 10" fill="none" xmlns="http://www.w3.org/2000/svg">
<path d="M16.2273 0H14.3182C14.065 0 13.8222 0.100568 13.6432 0.27958C13.4642 0.458592 13.3636 0.701385 13.3636 0.954546C13.3636 1.20771 13.4642 1.4505 13.6432 1.62951C13.8222 1.80852 14.065 1.90909 14.3182 1.90909H16.2273C16.9868 1.90909 17.7151 2.2108 18.2522 2.74783C18.7892 3.28487 19.0909 4.01325 19.0909 4.77273C19.0909 5.53221 18.7892 6.26059 18.2522 6.79763C17.7151 7.33466 16.9868 7.63637 16.2273 7.63637H14.3182C14.065 7.63637 13.8222 7.73694 13.6432 7.91595C13.4642 8.09496 13.3636 8.33775 13.3636 8.59091C13.3636 8.84407 13.4642 9.08687 13.6432 9.26588C13.8222 9.44489 14.065 9.54546 14.3182 9.54546H16.2273C17.4931 9.54546 18.707 9.04262 19.6021 8.14756C20.4972 7.2525 21 6.03854 21 4.77273C21 3.50692 20.4972 2.29296 19.6021 1.3979C18.707 0.50284 17.4931 0 16.2273 0Z" fill="white"/>
<path d="M6.68182 0H4.77273C3.50692 0 2.29296 0.50284 1.3979 1.3979C0.50284 2.29296 0 3.50692 0 4.77273C0 6.03854 0.50284 7.2525 1.3979 8.14756C2.29296 9.04262 3.50692 9.54546 4.77273 9.54546H6.68182C6.93498 9.54546 7.17777 9.44489 7.35679 9.26588C7.5358 9.08687 7.63637 8.84407 7.63637 8.59091C7.63637 8.33775 7.5358 8.09496 7.35679 7.91595C7.17777 7.73694 6.93498 7.63637 6.68182 7.63637H4.77273C4.01325 7.63637 3.28487 7.33466 2.74783 6.79763C2.2108 6.26059 1.90909 5.53221 1.90909 4.77273C1.90909 4.01325 2.2108 3.28487 2.74783 2.74783C3.28487 2.2108 4.01325 1.90909 4.77273 1.90909H6.68182C6.93498 1.90909 7.17777 1.80852 7.35679 1.62951C7.5358 1.4505 7.63637 1.20771 7.63637 0.954546C7.63637 0.701385 7.5358 0.458592 7.35679 0.27958C7.17777 0.100568 6.93498 0 6.68182 0Z" fill="white"/>
<path d="M5.72729 4.77266C5.72729 5.02583 5.82786 5.26862 6.00688 5.44763C6.18589 5.62665 6.42868 5.72721 6.68184 5.72721H14.3182C14.5714 5.72721 14.8142 5.62665 14.9932 5.44763C15.1722 5.26862 15.2728 5.02583 15.2728 4.77266C15.2728 4.5195 15.1722 4.27671 14.9932 4.0977C14.8142 3.91868 14.5714 3.81812 14.3182 3.81812H6.68184C6.42868 3.81812 6.18589 3.91868 6.00688 4.0977C5.82786 4.27671 5.72729 4.5195 5.72729 4.77266Z" fill="white"/>
</svg>
