<svg width="165" height="35" viewBox="0 0 165 35" fill="none" xmlns="http://www.w3.org/2000/svg">
<path d="M54.1844 23.1824C54.3707 23.3652 54.5931 23.4565 54.8521 23.4565H56.6456C56.9044 23.4565 57.125 23.3652 57.3076 23.1824C57.4901 22.9998 57.5815 22.7721 57.5815 22.4996V12.7555L61.0881 22.5592C61.1879 22.8049 61.3522 23.0159 61.5809 23.1921C61.8101 23.3685 62.0545 23.4565 62.3138 23.4565H63.7385C63.9973 23.4565 64.2429 23.3685 64.4754 23.1921C64.7078 23.0159 64.8705 22.8049 64.9635 22.5592L68.4806 12.7555V22.4996C68.4806 22.7721 68.5718 22.9998 68.7544 23.1824C68.9368 23.3652 69.1575 23.4565 69.4164 23.4565H71.21C71.4687 23.4565 71.6893 23.3652 71.872 23.1824C72.055 22.9998 72.1466 22.7721 72.1466 22.4996V10.1231C72.1466 9.85061 72.0584 9.62144 71.8824 9.4354C71.7063 9.24896 71.4888 9.15564 71.2301 9.15564H67.175C66.9161 9.15564 66.6705 9.24896 66.4381 9.4354C66.2056 9.62144 66.0493 9.84396 65.9694 10.103L63.0306 18.62L60.0918 10.103C60.0123 9.84396 59.8562 9.62144 59.6239 9.4354C59.3913 9.24896 59.1457 9.15564 58.887 9.15564H54.8319C54.573 9.15564 54.354 9.24896 54.1748 9.4354C53.9954 9.62144 53.9058 9.85061 53.9058 10.1231V22.4996C53.9058 22.7721 53.9986 22.9998 54.1844 23.1824Z" fill="#F8CA00"/>
<path d="M79.1984 23.6556C80.5531 23.6624 81.7551 23.2903 82.8049 22.5389V22.8477C82.8049 23.0209 82.8613 23.1658 82.974 23.2823C83.0868 23.3984 83.2327 23.4564 83.4121 23.4564H85.3346C85.5138 23.4564 85.6599 23.4 85.7727 23.2871C85.8858 23.1738 85.9426 23.0273 85.9426 22.8477V16.6752C85.9426 15.1924 85.4644 14.0969 84.5083 13.389C83.5519 12.6808 82.2834 12.3264 80.7029 12.3264C77.0829 12.3264 75.2731 13.2808 75.2731 15.1893C75.2731 15.3619 75.3311 15.5066 75.447 15.6231C75.5634 15.7392 75.7114 15.7972 75.8908 15.7972H77.3751C77.8535 15.7972 78.2354 15.6213 78.5211 15.2692C78.8926 14.8167 79.5401 14.5903 80.4637 14.5903C81.1676 14.5903 81.6822 14.7433 82.0076 15.0491C82.3329 15.355 82.4956 15.897 82.4956 16.6752H79.1984C77.81 16.6752 76.6756 16.9743 75.7958 17.5726C74.9163 18.1708 74.4766 19.0284 74.4766 20.1452C74.4766 21.2623 74.9163 22.1265 75.7958 22.7381C76.6756 23.3498 77.81 23.6556 79.1984 23.6556ZM78.3367 19.2785C78.6057 19.0524 78.9725 18.9391 79.4376 18.9391H82.4956V20.4943C81.5457 21.0926 80.5595 21.3917 79.5367 21.3917C79.0255 21.3917 78.6303 21.2756 78.3512 21.0434C78.0725 20.8108 77.9332 20.5113 77.9332 20.1452C77.9332 19.7933 78.0677 19.5043 78.3367 19.2785Z" fill="#F8CA00"/>
<path d="M88.8594 23.2872C88.9726 23.4001 89.119 23.4565 89.2984 23.4565H91.53C91.7024 23.4565 91.8465 23.4001 91.9625 23.2872C92.0789 23.174 92.1373 23.0274 92.1373 22.8478V19.1287C93.1734 19.1287 93.9639 19.5709 94.5083 20.455L95.7735 22.5189C96.1521 23.1441 96.6602 23.4565 97.2981 23.4565H99.181C99.4398 23.4565 99.6025 23.3669 99.6691 23.1873C99.6888 23.1341 99.6989 23.0776 99.6989 23.018C99.6925 22.8783 99.6325 22.712 99.5193 22.5189L97.8256 19.7769C97.228 18.8262 96.5209 18.2277 95.7043 17.9814C96.1424 17.8885 96.5507 17.6791 96.9292 17.3534C97.3078 17.0277 97.6065 16.6389 97.8256 16.1868L99.111 13.4738C99.2173 13.2477 99.2704 13.0614 99.2704 12.9151C99.2704 12.6561 99.1045 12.5265 98.7727 12.5265H96.8898C96.5906 12.5265 96.3115 12.6132 96.0522 12.7861C95.7933 12.9586 95.5976 13.188 95.4651 13.4738L94.5083 15.5079C94.0835 16.4057 93.2932 16.8543 92.1373 16.8543V9.77402C92.1373 9.59463 92.0809 9.44669 91.9682 9.33059C91.8554 9.21409 91.7092 9.15564 91.53 9.15564H89.2984C89.1254 9.15564 88.9806 9.21409 88.8643 9.33059C88.7483 9.44669 88.6903 9.59463 88.6903 9.77402V22.8478C88.6903 23.0274 88.7467 23.174 88.8594 23.2872Z" fill="#F8CA00"/>
<path d="M106.222 23.6556C109.856 23.6624 111.672 22.7121 111.672 20.8039C111.672 20.6245 111.614 20.4766 111.498 20.3605C111.382 20.244 111.234 20.1855 111.055 20.1855H109.57C109.092 20.192 108.71 20.3716 108.424 20.7241C108.059 21.1691 107.408 21.3917 106.472 21.3917C105.641 21.3917 105.025 21.2058 104.624 20.8338C104.222 20.4613 103.988 19.8663 103.921 19.0488H111.423C111.602 19.0488 111.75 18.9907 111.866 18.8746C111.982 18.7581 112.04 18.61 112.04 18.4304V17.862C112.04 16.0802 111.529 14.7125 110.506 13.7583C109.483 12.8037 108.055 12.3264 106.222 12.3264C104.403 12.3264 102.978 12.817 101.949 13.7978C100.92 14.7788 100.405 16.1816 100.405 18.0063C100.405 19.8312 100.916 21.2288 101.939 22.1995C102.961 23.1702 104.389 23.6556 106.222 23.6556ZM106.227 14.5903C107.698 14.5903 108.467 15.3752 108.534 16.9445H103.901C103.981 15.3752 104.757 14.5903 106.227 14.5903Z" fill="#F8CA00"/>
<path d="M114.34 23.2871C114.453 23.4 114.599 23.4564 114.779 23.4564H117.01C117.183 23.4564 117.327 23.4 117.443 23.2871C117.559 23.1738 117.618 23.0273 117.618 22.8477V16.4753C118.435 15.4917 119.291 14.9999 120.188 14.9999C120.367 14.9999 120.63 15.01 120.975 15.0297C121.32 15.0497 121.569 15.0595 121.722 15.0595H122.041C122.22 15.0595 122.368 15.0031 122.484 14.8902C122.6 14.777 122.658 14.6304 122.658 14.4508V12.9351C122.658 12.7622 122.6 12.6175 122.484 12.5014C122.368 12.3849 122.22 12.3264 122.041 12.3264C121.025 12.3264 120.203 12.4447 119.575 12.6812C118.948 12.9172 118.295 13.281 117.618 13.7728V13.1447C117.618 12.9654 117.561 12.8174 117.448 12.7013C117.336 12.5848 117.189 12.5264 117.01 12.5264H114.779C114.606 12.5264 114.461 12.5848 114.344 12.7013C114.229 12.8174 114.171 12.9654 114.171 13.1447V22.8477C114.171 23.0273 114.227 23.1738 114.34 23.2871Z" fill="#F8CA00"/>
<path d="M124.859 23.1921C125.045 23.3685 125.267 23.4565 125.526 23.4565H137.013C137.272 23.4565 137.493 23.3652 137.675 23.1824C137.858 22.9998 137.949 22.7785 137.949 22.5189V21.5821C137.949 21.3225 137.858 21.0997 137.675 20.9137C137.493 20.7273 137.272 20.6339 137.013 20.6339H128.336V10.1231C128.336 9.85061 128.244 9.62144 128.062 9.4354C127.879 9.24896 127.658 9.15564 127.399 9.15564H125.526C125.267 9.15564 125.045 9.24896 124.859 9.4354C124.673 9.62144 124.58 9.85061 124.58 10.1231V22.5391C124.58 22.7983 124.673 23.0159 124.859 23.1921Z" fill="#F8CA00"/>
<path d="M143.776 23.6556C145.13 23.6624 146.332 23.2903 147.382 22.5389V22.8477C147.382 23.0209 147.439 23.1658 147.551 23.2823C147.664 23.3984 147.81 23.4564 147.99 23.4564H149.912C150.091 23.4564 150.237 23.4 150.35 23.2871C150.463 23.1738 150.52 23.0273 150.52 22.8477V16.6752C150.52 15.1924 150.042 14.0969 149.086 13.389C148.129 12.6808 146.861 12.3264 145.28 12.3264C141.66 12.3264 139.85 13.2808 139.85 15.1893C139.85 15.3619 139.908 15.5066 140.024 15.6231C140.141 15.7392 140.289 15.7972 140.468 15.7972H141.952C142.431 15.7972 142.813 15.6213 143.099 15.2692C143.47 14.8167 144.118 14.5903 145.041 14.5903C145.745 14.5903 146.26 14.7433 146.585 15.0491C146.91 15.355 147.073 15.897 147.073 16.6752H143.776C142.387 16.6752 141.253 16.9743 140.373 17.5726C139.494 18.1708 139.054 19.0284 139.054 20.1452C139.054 21.2623 139.494 22.1265 140.373 22.7381C141.253 23.3498 142.387 23.6556 143.776 23.6556ZM142.914 19.2785C143.183 19.0524 143.55 18.9391 144.015 18.9391H147.073V20.4943C146.123 21.0926 145.137 21.3917 144.114 21.3917C143.603 21.3917 143.208 21.2756 142.929 21.0434C142.65 20.8108 142.511 20.5113 142.511 20.1452C142.511 19.7933 142.645 19.5043 142.914 19.2785Z" fill="#F8CA00"/>
<path d="M153.268 22.5391C153.799 22.8515 154.581 23.1155 155.614 23.3316C156.647 23.5477 157.645 23.6557 158.608 23.6557C162.825 23.6557 164.934 21.7711 164.934 18.0016C164.934 16.1666 164.452 14.7622 163.489 13.7882C162.526 12.8139 161.228 12.3265 159.594 12.3265C158.75 12.3265 157.791 12.4963 156.715 12.8353V9.77402C156.715 9.59463 156.658 9.44669 156.546 9.33059C156.433 9.21409 156.287 9.15564 156.107 9.15564H153.876C153.703 9.15564 153.558 9.21409 153.442 9.33059C153.326 9.44669 153.268 9.59463 153.268 9.77402V22.5391ZM158.877 14.7404C159.787 14.7404 160.432 14.9982 160.814 15.5136C161.196 16.0286 161.387 16.858 161.387 18.0016C161.387 19.1448 161.193 19.9726 160.804 20.4848C160.416 20.9965 159.753 21.2523 158.817 21.2523C157.987 21.2523 157.286 21.1761 156.715 21.0233V15.1395C157.572 14.867 158.292 14.7339 158.877 14.7404Z" fill="#F8CA00"/>
<path d="M33.5362 1.97416V0H23.6722V1.97416H1.97311L0 3.94937V33.5708H7.89137V29.6216H3.94558V5.92373H23.6722V7.89894H25.6449V9.87353L27.5815 11.8851H29.627L31.5631 9.87353V7.89894H33.5362V5.92373H37.4812V29.6216H33.5362V33.5708H41.4268V3.94937L39.4541 1.97416H33.5362Z" fill="#F8CA00"/>
<path d="M28.3007 28.1417C28.0656 28.1514 27.9877 28.0951 27.9422 27.8619C27.6957 26.6116 27.3507 25.392 26.7314 24.2655C25.7671 22.5122 24.3314 21.5664 22.2861 21.6684C21.4604 21.7099 20.6626 21.8959 19.8966 22.1887C19.5146 22.3354 19.1514 22.3621 18.7587 22.2806C17.9453 22.1115 17.2831 21.7467 16.9229 20.9504C16.6171 20.2736 16.6271 20.2755 17.2987 19.9775L18.5473 19.488C18.6739 19.4309 18.7653 19.3901 18.8567 19.3477C19.4824 19.0628 20.0969 18.7622 20.6293 18.315C21.4251 17.6447 22.2823 17.073 21.7828 16.1692C21.2831 15.2656 19.7723 15.7081 18.9867 16.0831C17.7599 16.6677 17.6592 17.0553 16.653 17.9439C16.3724 18.1917 16.0911 18.4394 15.8101 18.6874C15.7864 18.6692 15.7638 18.6504 15.7401 18.6318C15.7975 18.4379 15.8569 18.2441 15.9137 18.05C16.0266 17.6669 16.1385 17.2851 16.1155 16.8762C16.0841 16.3219 15.585 15.9732 15.0591 16.1444C14.616 16.2892 14.342 16.6015 14.1821 17.0266C14.0371 17.4119 13.9544 17.8135 13.9105 18.2216C13.8801 18.4965 13.7627 18.641 13.4859 18.7344C12.6785 19.0057 12.052 19.504 11.8325 20.3668C11.6311 21.5949 10.9986 21.9057 10.8139 22.7144C10.6125 23.5964 11.3354 24.2606 12.0309 24.5763C12.5607 24.8168 12.5429 24.8155 12.477 25.4025C12.3584 26.4617 12.5237 27.4528 13.2908 28.2591C13.7631 28.7574 14.3583 29.0819 14.9747 29.3671C15.42 29.5731 15.8746 29.761 16.3207 29.9667C16.4351 30.0191 16.6284 30.0364 16.6254 30.1779C16.6233 30.3087 16.4351 30.3416 16.3226 30.4047C16.0732 30.5445 15.8125 30.6648 15.5611 30.8042C15.2133 30.9988 14.8526 31.1775 14.5699 31.4688C14.3275 31.7174 14.3484 31.9643 14.6517 32.1204C14.8716 32.2341 14.9015 32.3474 14.833 32.5747C14.6645 33.1223 14.8718 33.4718 15.4268 33.6127C15.7567 33.6971 16.0924 33.7113 16.4319 33.673C16.9009 33.6204 17.3645 33.5432 17.8217 33.4295C17.9276 33.4028 18.019 33.3977 18.1067 33.4759C18.4501 33.7797 18.8763 33.8972 19.3083 33.9885C20.4194 34.2215 21.5424 34.2459 22.666 34.1084C23.4497 34.0131 24.2259 33.8748 24.9385 33.5058C25.2614 33.3387 25.5638 33.1375 25.7222 32.7978C25.8089 32.6103 25.9392 32.5214 26.1264 32.4639C26.9037 32.2239 27.6432 31.9011 28.306 31.4212C28.917 30.9782 29.4182 30.4496 29.5811 29.6783C29.763 28.8177 29.179 28.1069 28.3007 28.1417Z" fill="#F8CA00"/>
<path d="M164.782 31.6362H54.1139V33.6071H164.782V31.6362Z" fill="#F8CA00"/>
<path d="M164.782 0H54.1139V1.97083H164.782V0Z" fill="#F8CA00"/>
</svg>
